<svg width="359" height="88" viewBox="0 0 359 88" fill="none" xmlns="http://www.w3.org/2000/svg">
    <path d="M0.894844 11H2.87484C7.59484 11 11.2748 12.26 13.9148 14.78C16.5548 17.26 17.8748 20.6 17.8748 24.8C17.8748 27.72 17.2348 30.32 15.9548 32.6C14.6748 34.84 12.9348 36.58 10.7348 37.82C8.53484 39.02 6.07484 39.62 3.35484 39.62H2.87484V56H0.894844V11ZM3.47484 37.88C7.11484 37.88 10.0948 36.76 12.4148 34.52C14.7348 32.24 15.8948 29.04 15.8948 24.92C15.8948 21 14.7948 18 12.5948 15.92C10.4348 13.8 7.35484 12.74 3.35484 12.74H2.87484V37.88H3.47484ZM61.1217 56H59.0217L50.5017 38.84H26.6217L18.2817 56H16.1817L38.6217 9.92L61.1217 56ZM49.7817 37.1L38.5017 14.24L27.4617 37.1H49.7817ZM76.7184 57.2C74.0384 57.2 71.5984 56.62 69.3984 55.46C67.1984 54.3 65.3984 52.72 63.9984 50.72V47.36C65.3184 49.96 67.0384 51.96 69.1584 53.36C71.2784 54.76 73.7384 55.46 76.5384 55.46C79.0584 55.46 81.2984 54.88 83.2584 53.72C85.2584 52.56 86.8184 50.94 87.9384 48.86C89.0584 46.74 89.6184 44.34 89.6184 41.66C89.6184 39.06 89.0784 36.74 87.9984 34.7C86.9184 32.66 85.3984 31.08 83.4384 29.96C81.5184 28.8 79.3384 28.22 76.8984 28.22H74.0184V26.54H75.9384C78.3384 26.54 80.3384 25.74 81.9384 24.14C83.5384 22.5 84.3384 20.48 84.3384 18.08C84.3384 16.16 83.6384 14.6 82.2384 13.4C80.8784 12.16 79.0984 11.54 76.8984 11.54C75.0584 11.54 73.3784 12 71.8584 12.92C70.3384 13.8 69.3384 14.96 68.8584 16.4V13.28C69.7784 12.16 70.9384 11.3 72.3384 10.7C73.7384 10.1 75.2984 9.8 77.0184 9.8C79.8184 9.8 82.0584 10.54 83.7384 12.02C85.4584 13.5 86.3184 15.52 86.3184 18.08C86.3184 22.44 84.2184 25.44 80.0184 27.08C83.4184 27.68 86.1984 29.28 88.3584 31.88C90.5184 34.44 91.5984 37.66 91.5984 41.54C91.5984 44.58 90.9384 47.3 89.6184 49.7C88.3384 52.06 86.5584 53.9 84.2784 55.22C81.9984 56.54 79.4784 57.2 76.7184 57.2ZM98.8064 11H100.726C103.886 11 106.206 11.74 107.686 13.22C109.166 14.66 109.906 16.8 109.906 19.64C109.906 21.28 109.426 22.86 108.466 24.38C107.506 25.86 106.346 26.86 104.986 27.38C108.426 27.94 111.086 29.38 112.966 31.7C114.846 34.02 115.786 37.06 115.786 40.82C115.786 43.82 115.126 46.48 113.806 48.8C112.486 51.08 110.666 52.86 108.346 54.14C106.066 55.38 103.526 56 100.726 56H98.8064V11ZM101.206 26.84C103.126 26.84 104.746 26.14 106.066 24.74C107.386 23.34 108.046 21.62 108.046 19.58C108.046 17.3 107.486 15.58 106.366 14.42C105.286 13.26 103.566 12.68 101.206 12.68H100.726V26.84H101.206ZM101.206 54.32C103.566 54.32 105.706 53.76 107.626 52.64C109.546 51.48 111.066 49.88 112.186 47.84C113.306 45.8 113.866 43.5 113.866 40.94C113.866 36.82 112.766 33.72 110.566 31.64C108.406 29.52 105.286 28.46 101.206 28.46H100.726V54.32H101.206ZM122.766 11H124.746V52.94L156.006 11H157.986V56H156.006V13.94L124.626 56H122.766V11ZM167.244 11H169.164C172.324 11 174.644 11.74 176.124 13.22C177.604 14.66 178.344 16.8 178.344 19.64C178.344 21.28 177.864 22.86 176.904 24.38C175.944 25.86 174.784 26.86 173.424 27.38C176.864 27.94 179.524 29.38 181.404 31.7C183.284 34.02 184.224 37.06 184.224 40.82C184.224 43.82 183.564 46.48 182.244 48.8C180.924 51.08 179.104 52.86 176.784 54.14C174.504 55.38 171.964 56 169.164 56H167.244V11ZM169.644 26.84C171.564 26.84 173.184 26.14 174.504 24.74C175.824 23.34 176.484 21.62 176.484 19.58C176.484 17.3 175.924 15.58 174.804 14.42C173.724 13.26 172.004 12.68 169.644 12.68H169.164V26.84H169.644ZM169.644 54.32C172.004 54.32 174.144 53.76 176.064 52.64C177.984 51.48 179.504 49.88 180.624 47.84C181.744 45.8 182.304 43.5 182.304 40.94C182.304 36.82 181.204 33.72 179.004 31.64C176.844 29.52 173.724 28.46 169.644 28.46H169.164V54.32H169.644ZM231.161 56H229.061L220.541 38.84H196.661L188.321 56H186.221L208.661 9.92L231.161 56ZM219.821 37.1L208.541 14.24L197.501 37.1H219.821ZM237.609 11H239.589V52.94L270.849 11H272.829V56H270.849V13.94L239.469 56H237.609V11ZM255.429 6.98C252.749 6.98 250.649 6.38 249.129 5.18C247.649 3.98 246.849 2.26 246.729 0.0199983H248.409C248.569 1.78 249.249 3.12 250.449 4.04C251.649 4.96 253.289 5.42 255.369 5.42C257.169 5.42 258.729 4.9 260.049 3.86C261.409 2.82 262.169 1.54 262.329 0.0199983H264.069C263.989 1.98 263.109 3.64 261.429 5C259.749 6.32 257.749 6.98 255.429 6.98ZM307.888 56L284.068 30.98V56H282.088V11H284.068V27.32L302.848 11H305.668L284.608 29L310.528 56H307.888ZM358.837 56H356.737L348.217 38.84H324.337L315.997 56H313.897L336.337 9.92L358.837 56ZM347.497 37.1L336.217 14.24L325.177 37.1H347.497Z" fill="black"/>
    <path d="M16.9615 79.88H16.7375C14.7322 79.88 12.8655 79.3787 11.1375 78.376C9.43083 77.3733 8.0655 76.0293 7.0415 74.344C6.03883 72.6587 5.5375 70.8453 5.5375 68.904C5.5375 66.984 6.03883 65.192 7.0415 63.528C8.0655 61.864 9.43083 60.5413 11.1375 59.56C12.8655 58.5573 14.7215 58.056 16.7055 58.056H16.9615V56.2H18.0175V58.056H18.2415C20.2468 58.056 22.1028 58.5573 23.8095 59.56C25.5375 60.5627 26.9028 61.9067 27.9055 63.592C28.9295 65.2773 29.4415 67.08 29.4415 69C29.4415 70.92 28.9295 72.7227 27.9055 74.408C26.8815 76.072 25.5055 77.4053 23.7775 78.408C22.0708 79.3893 20.2255 79.88 18.2415 79.88H18.0175V81.8H16.9615V79.88ZM16.9615 79.016V58.92H16.7055C14.9135 58.92 13.2388 59.3787 11.6815 60.296C10.1242 61.192 8.88683 62.408 7.9695 63.944C7.05217 65.48 6.5935 67.144 6.5935 68.936C6.5935 70.728 7.05217 72.4027 7.9695 73.96C8.88683 75.496 10.1242 76.7227 11.6815 77.64C13.2388 78.5573 14.9242 79.016 16.7375 79.016H16.9615ZM18.2415 79.016C20.0335 79.016 21.7082 78.5573 23.2655 77.64C24.8442 76.7227 26.0922 75.496 27.0095 73.96C27.9482 72.424 28.4175 70.7707 28.4175 69C28.4175 67.2293 27.9482 65.576 27.0095 64.04C26.0708 62.4827 24.8228 61.2453 23.2655 60.328C21.7082 59.3893 20.0442 58.92 18.2735 58.92H18.0175V79.016H18.2415ZM39.8313 81.352C38.4659 81.352 37.1966 81.0107 36.0233 80.328C34.8499 79.6453 33.9219 78.728 33.2393 77.576C32.5566 76.4027 32.2153 75.144 32.2153 73.8C32.2153 72.456 32.5566 71.208 33.2393 70.056C33.9219 68.8827 34.8499 67.9547 36.0233 67.272C37.1966 66.5893 38.4659 66.248 39.8313 66.248C41.2179 66.248 42.5299 66.6213 43.7673 67.368C45.0046 68.0933 45.8686 69.0427 46.3593 70.216V66.6H47.3833V81H46.3593V77.416C45.7833 78.6107 44.8873 79.5707 43.6713 80.296C42.4766 81 41.1966 81.352 39.8313 81.352ZM39.8953 80.456C41.0686 80.456 42.1566 80.1573 43.1593 79.56C44.1619 78.9413 44.9513 78.1307 45.5273 77.128C46.1246 76.104 46.4233 74.9947 46.4233 73.8C46.4233 72.6267 46.1246 71.528 45.5273 70.504C44.9299 69.48 44.1299 68.6693 43.1273 68.072C42.1246 67.4533 41.0366 67.144 39.8633 67.144C38.6899 67.144 37.5913 67.4533 36.5673 68.072C35.5646 68.6907 34.7539 69.512 34.1353 70.536C33.5379 71.56 33.2393 72.6587 33.2393 73.832C33.2393 75.0053 33.5379 76.104 34.1353 77.128C34.7539 78.1307 35.5753 78.9413 36.5993 79.56C37.6233 80.1573 38.7219 80.456 39.8953 80.456ZM51.8063 66.6H52.8303V74.696H62.5903V66.6H63.6143V81H62.5903V75.592H52.8303V81H51.8063V66.6ZM71.984 67.528H66.48V66.632H78.512V67.528H73.008V81H71.984V67.528ZM87.8 81.352C86.4347 81.352 85.1653 81.0107 83.992 80.328C82.8187 79.6453 81.8907 78.728 81.208 77.576C80.5253 76.4027 80.184 75.144 80.184 73.8C80.184 72.456 80.5253 71.208 81.208 70.056C81.8907 68.8827 82.8187 67.9547 83.992 67.272C85.1653 66.5893 86.4347 66.248 87.8 66.248C89.1867 66.248 90.4987 66.6213 91.736 67.368C92.9733 68.0933 93.8373 69.0427 94.328 70.216V66.6H95.352V81H94.328V77.416C93.752 78.6107 92.856 79.5707 91.64 80.296C90.4453 81 89.1653 81.352 87.8 81.352ZM87.864 80.456C89.0373 80.456 90.1253 80.1573 91.128 79.56C92.1307 78.9413 92.92 78.1307 93.496 77.128C94.0933 76.104 94.392 74.9947 94.392 73.8C94.392 72.6267 94.0933 71.528 93.496 70.504C92.8987 69.48 92.0987 68.6693 91.096 68.072C90.0933 67.4533 89.0053 67.144 87.832 67.144C86.6587 67.144 85.56 67.4533 84.536 68.072C83.5333 68.6907 82.7227 69.512 82.104 70.536C81.5067 71.56 81.208 72.6587 81.208 73.832C81.208 75.0053 81.5067 76.104 82.104 77.128C82.7227 78.1307 83.544 78.9413 84.568 79.56C85.592 80.1573 86.6907 80.456 87.864 80.456ZM102.239 81.416C100.511 81.416 99.103 80.6907 98.015 79.24V77.48C98.3563 78.3973 98.8897 79.1333 99.615 79.688C100.362 80.2427 101.258 80.52 102.303 80.52C103.476 80.52 104.415 80.1573 105.119 79.432C105.844 78.7067 106.207 77.7147 106.207 76.456C106.207 75.24 105.812 74.2587 105.023 73.512C104.255 72.7653 103.316 72.392 102.207 72.392H101.439V71.496H102.079C102.74 71.496 103.306 71.2827 103.775 70.856C104.266 70.408 104.511 69.864 104.511 69.224C104.511 68.6267 104.33 68.136 103.967 67.752C103.604 67.3467 103.092 67.144 102.431 67.144C101.279 67.144 100.436 67.72 99.903 68.872V67.304C100.586 66.664 101.439 66.344 102.463 66.344C103.338 66.344 104.052 66.632 104.607 67.208C105.162 67.784 105.439 68.4667 105.439 69.256C105.439 69.8533 105.268 70.376 104.927 70.824C104.586 71.272 104.138 71.6027 103.583 71.816C104.628 72.0507 105.492 72.5733 106.175 73.384C106.879 74.1733 107.231 75.1973 107.231 76.456C107.231 77.9067 106.762 79.1013 105.823 80.04C104.906 80.9573 103.711 81.416 102.239 81.416ZM110.9 66.6H111.892V79.56L122.228 66.6H123.156V81H122.164V68.072L111.796 81H110.9V66.6ZM130.555 75.944C129.488 75.688 128.624 75.1333 127.963 74.28C127.323 73.4053 127.003 72.3707 127.003 71.176C127.003 70.3867 127.216 69.64 127.643 68.936C128.069 68.232 128.645 67.6667 129.371 67.24C130.096 66.8133 130.885 66.6 131.739 66.6H133.659V81H132.635V76.04H131.579L127.931 81H126.843L130.555 75.944ZM132.635 75.176V67.464H131.675C131.035 67.464 130.427 67.6453 129.851 68.008C129.275 68.3707 128.805 68.8507 128.443 69.448C128.101 70.024 127.931 70.6427 127.931 71.304C127.931 71.9653 128.101 72.5947 128.443 73.192C128.805 73.7893 129.275 74.2693 129.851 74.632C130.427 74.9947 131.035 75.176 131.675 75.176H132.635ZM145.494 66.6H146.486V79.56L156.822 66.6H157.75V81H156.758V68.072L146.39 81H145.494V66.6ZM169.716 57H170.74C172.425 57 173.662 57.3947 174.452 58.184C175.241 58.952 175.635 60.0933 175.635 61.608C175.635 62.4827 175.38 63.3253 174.868 64.136C174.356 64.9253 173.737 65.4587 173.012 65.736C174.846 66.0347 176.265 66.8027 177.268 68.04C178.27 69.2773 178.772 70.8987 178.772 72.904C178.772 74.504 178.42 75.9227 177.716 77.16C177.012 78.376 176.041 79.3253 174.804 80.008C173.588 80.6693 172.233 81 170.74 81H169.716V57ZM170.996 65.448C172.02 65.448 172.884 65.0747 173.588 64.328C174.292 63.5813 174.644 62.664 174.644 61.576C174.644 60.36 174.345 59.4427 173.748 58.824C173.172 58.2053 172.254 57.896 170.996 57.896H170.74V65.448H170.996ZM170.996 80.104C172.254 80.104 173.396 79.8053 174.42 79.208C175.444 78.5893 176.254 77.736 176.852 76.648C177.449 75.56 177.748 74.3333 177.748 72.968C177.748 70.7707 177.161 69.1173 175.988 68.008C174.836 66.8773 173.172 66.312 170.996 66.312H170.74V80.104H170.996ZM188.958 81.512C187.507 81.512 186.195 81.16 185.022 80.456C183.848 79.7307 182.931 78.7813 182.27 77.608C181.608 76.4133 181.278 75.1227 181.278 73.736C181.278 72.3707 181.608 71.1013 182.27 69.928C182.952 68.7547 183.87 67.8267 185.022 67.144C186.195 66.44 187.496 66.088 188.926 66.088C190.334 66.088 191.614 66.44 192.766 67.144C193.939 67.8267 194.856 68.7547 195.518 69.928C196.179 71.1013 196.51 72.3707 196.51 73.736C196.51 75.1653 196.19 76.4773 195.55 77.672C194.91 78.8453 194.014 79.784 192.862 80.488C191.731 81.1707 190.43 81.512 188.958 81.512ZM188.958 80.616C190.174 80.616 191.283 80.3067 192.286 79.688C193.288 79.0693 194.067 78.248 194.622 77.224C195.198 76.1787 195.486 75.0373 195.486 73.8C195.486 72.584 195.198 71.4533 194.622 70.408C194.046 69.3627 193.256 68.5307 192.254 67.912C191.251 67.2933 190.142 66.984 188.926 66.984C187.71 66.984 186.59 67.304 185.566 67.944C184.563 68.5627 183.763 69.3947 183.166 70.44C182.59 71.4853 182.302 72.616 182.302 73.832C182.302 75.048 182.59 76.1787 183.166 77.224C183.763 78.248 184.563 79.0693 185.566 79.688C186.59 80.3067 187.72 80.616 188.958 80.616ZM206.552 81.512C205.101 81.512 203.789 81.16 202.616 80.456C201.442 79.7307 200.525 78.7813 199.864 77.608C199.202 76.4133 198.872 75.1227 198.872 73.736C198.872 72.3707 199.202 71.1013 199.864 69.928C200.546 68.7547 201.464 67.8267 202.616 67.144C203.789 66.44 205.09 66.088 206.52 66.088C207.928 66.088 209.208 66.44 210.36 67.144C211.533 67.8267 212.45 68.7547 213.112 69.928C213.773 71.1013 214.104 72.3707 214.104 73.736C214.104 75.1653 213.784 76.4773 213.144 77.672C212.504 78.8453 211.608 79.784 210.456 80.488C209.325 81.1707 208.024 81.512 206.552 81.512ZM206.552 80.616C207.768 80.616 208.877 80.3067 209.88 79.688C210.882 79.0693 211.661 78.248 212.216 77.224C212.792 76.1787 213.08 75.0373 213.08 73.8C213.08 72.584 212.792 71.4533 212.216 70.408C211.64 69.3627 210.85 68.5307 209.848 67.912C208.845 67.2933 207.736 66.984 206.52 66.984C205.304 66.984 204.184 67.304 203.16 67.944C202.157 68.5627 201.357 69.3947 200.76 70.44C200.184 71.4853 199.896 72.616 199.896 73.832C199.896 75.048 200.184 76.1787 200.76 77.224C201.357 78.248 202.157 79.0693 203.16 79.688C204.184 80.3067 205.314 80.616 206.552 80.616ZM224.753 66.088C226.161 66.088 227.441 66.44 228.593 67.144C229.767 67.8267 230.684 68.7547 231.345 69.928C232.007 71.1013 232.337 72.3707 232.337 73.736C232.337 75.1653 232.017 76.4773 231.377 77.672C230.737 78.8453 229.841 79.784 228.689 80.488C227.559 81.1707 226.257 81.512 224.785 81.512C223.356 81.512 222.055 81.16 220.881 80.456C219.708 79.752 218.78 78.8133 218.097 77.64C217.436 76.4453 217.105 75.1653 217.105 73.8V72.552C217.105 69.8427 217.383 67.6347 217.937 65.928C218.513 64.2 219.356 62.8347 220.465 61.832C221.575 60.8293 223.036 59.9653 224.849 59.24L230.577 56.936V57.864L225.073 60.104C222.897 60.9787 221.233 62.1627 220.081 63.656C218.929 65.128 218.279 67.1973 218.129 69.864C218.791 68.712 219.697 67.7947 220.849 67.112C222.023 66.4293 223.324 66.088 224.753 66.088ZM224.785 80.616C226.001 80.616 227.111 80.3067 228.113 79.688C229.116 79.0693 229.895 78.248 230.449 77.224C231.025 76.1787 231.313 75.0373 231.313 73.8C231.313 72.584 231.025 71.4533 230.449 70.408C229.873 69.3627 229.084 68.5307 228.081 67.912C227.079 67.2933 225.969 66.984 224.753 66.984C223.537 66.984 222.417 67.304 221.393 67.944C220.391 68.5627 219.591 69.3947 218.993 70.44C218.417 71.4853 218.129 72.616 218.129 73.832C218.129 75.048 218.417 76.1787 218.993 77.224C219.591 78.248 220.391 79.0693 221.393 79.688C222.417 80.3067 223.548 80.616 224.785 80.616ZM235.579 66.6H236.603V70.12C237.179 68.968 238.075 68.04 239.291 67.336C240.507 66.6107 241.787 66.248 243.131 66.248C244.517 66.248 245.787 66.5893 246.939 67.272C248.112 67.9547 249.04 68.872 249.722 70.024C250.405 71.176 250.747 72.4347 250.747 73.8C250.747 75.1653 250.405 76.424 249.722 77.576C249.04 78.728 248.112 79.6453 246.939 80.328C245.787 81.0107 244.517 81.352 243.131 81.352C241.829 81.352 240.571 81 239.355 80.296C238.16 79.592 237.243 78.664 236.603 77.512V87.4H235.579V66.6ZM243.195 80.456C244.368 80.456 245.456 80.1573 246.459 79.56C247.461 78.9413 248.251 78.1307 248.827 77.128C249.424 76.104 249.722 74.9947 249.722 73.8C249.722 72.6267 249.424 71.528 248.827 70.504C248.229 69.48 247.429 68.6693 246.427 68.072C245.424 67.4533 244.336 67.144 243.163 67.144C241.989 67.144 240.891 67.4533 239.867 68.072C238.864 68.6907 238.053 69.512 237.435 70.536C236.837 71.56 236.539 72.6587 236.539 73.832C236.539 75.0053 236.837 76.104 237.435 77.128C238.053 78.1307 238.875 78.9413 239.899 79.56C240.923 80.1573 242.021 80.456 243.195 80.456ZM260.738 81.352C259.372 81.352 258.103 81.0107 256.93 80.328C255.756 79.6453 254.828 78.728 254.146 77.576C253.463 76.4027 253.122 75.144 253.122 73.8C253.122 72.456 253.463 71.208 254.146 70.056C254.828 68.8827 255.756 67.9547 256.93 67.272C258.103 66.5893 259.372 66.248 260.738 66.248C262.124 66.248 263.436 66.6213 264.674 67.368C265.911 68.0933 266.775 69.0427 267.266 70.216V66.6H268.29V81H267.266V77.416C266.69 78.6107 265.794 79.5707 264.578 80.296C263.383 81 262.103 81.352 260.738 81.352ZM260.802 80.456C261.975 80.456 263.063 80.1573 264.066 79.56C265.068 78.9413 265.858 78.1307 266.434 77.128C267.031 76.104 267.33 74.9947 267.33 73.8C267.33 72.6267 267.031 71.528 266.434 70.504C265.836 69.48 265.036 68.6693 264.034 68.072C263.031 67.4533 261.943 67.144 260.77 67.144C259.596 67.144 258.498 67.4533 257.474 68.072C256.471 68.6907 255.66 69.512 255.042 70.536C254.444 71.56 254.146 72.6587 254.146 73.832C254.146 75.0053 254.444 76.104 255.042 77.128C255.66 78.1307 256.482 78.9413 257.506 79.56C258.53 80.1573 259.628 80.456 260.802 80.456ZM278.889 72.36L273.257 66.6H274.409L279.017 71.24V66.6H280.041V71.24L284.649 66.6H285.801L280.169 72.36L288.585 81H287.208L280.041 73.608V81H279.017V73.608L271.849 81H270.473L278.889 72.36ZM296.493 80.488C297.602 80.488 298.658 80.2 299.661 79.624C300.663 79.048 301.495 78.2587 302.157 77.256V78.888C301.367 79.7627 300.503 80.4027 299.565 80.808C298.626 81.192 297.559 81.384 296.365 81.384C295.042 81.384 293.794 81.032 292.621 80.328C291.469 79.624 290.541 78.6853 289.837 77.512C289.154 76.3387 288.813 75.0907 288.813 73.768C288.813 72.3387 289.154 71.0587 289.837 69.928C290.519 68.776 291.447 67.88 292.621 67.24C293.815 66.6 295.138 66.28 296.589 66.28C298.807 66.28 300.695 67.1547 302.253 68.904L292.205 78.824C292.909 79.4 293.591 79.8267 294.253 80.104C294.914 80.36 295.661 80.488 296.493 80.488ZM289.837 73.672C289.837 75.4427 290.423 76.9573 291.597 78.216L300.973 68.904C300.269 68.2853 299.586 67.848 298.925 67.592C298.263 67.3147 297.474 67.176 296.557 67.176C295.255 67.176 294.093 67.464 293.069 68.04C292.066 68.5947 291.277 69.3627 290.701 70.344C290.125 71.3253 289.837 72.4347 289.837 73.672ZM305.838 66.6H306.862V74.696H316.622V66.6H317.646V81H316.622V75.592H306.862V81H305.838V66.6ZM322.431 66.6H323.423V79.56L333.759 66.6H334.687V81H333.695V68.072L323.327 81H322.431V66.6ZM346.118 80.488C347.227 80.488 348.283 80.2 349.286 79.624C350.288 79.048 351.12 78.2587 351.782 77.256V78.888C350.992 79.7627 350.128 80.4027 349.19 80.808C348.251 81.192 347.184 81.384 345.99 81.384C344.667 81.384 343.419 81.032 342.246 80.328C341.094 79.624 340.166 78.6853 339.462 77.512C338.779 76.3387 338.438 75.0907 338.438 73.768C338.438 72.3387 338.779 71.0587 339.462 69.928C340.144 68.776 341.072 67.88 342.246 67.24C343.44 66.6 344.763 66.28 346.214 66.28C348.432 66.28 350.32 67.1547 351.878 68.904L341.83 78.824C342.534 79.4 343.216 79.8267 343.878 80.104C344.539 80.36 345.286 80.488 346.118 80.488ZM339.462 73.672C339.462 75.4427 340.048 76.9573 341.222 78.216L350.598 68.904C349.894 68.2853 349.211 67.848 348.55 67.592C347.888 67.3147 347.099 67.176 346.182 67.176C344.88 67.176 343.718 67.464 342.694 68.04C341.691 68.5947 340.902 69.3627 340.326 70.344C339.75 71.3253 339.462 72.4347 339.462 73.672Z" fill="#001038"/>
</svg>
