<svg width="359" height="88" viewBox="0 0 359 88" fill="none" xmlns="http://www.w3.org/2000/svg">
    <path d="M0.894844 11H2.87484C7.59484 11 11.2748 12.26 13.9148 14.78C16.5548 17.26 17.8748 20.6 17.8748 24.8C17.8748 27.72 17.2348 30.32 15.9548 32.6C14.6748 34.84 12.9348 36.58 10.7348 37.82C8.53484 39.02 6.07484 39.62 3.35484 39.62H2.87484V56H0.894844V11ZM3.47484 37.88C7.11484 37.88 10.0948 36.76 12.4148 34.52C14.7348 32.24 15.8948 29.04 15.8948 24.92C15.8948 21 14.7948 18 12.5948 15.92C10.4348 13.8 7.35484 12.74 3.35484 12.74H2.87484V37.88H3.47484ZM61.1217 56H59.0217L50.5017 38.84H26.6217L18.2817 56H16.1817L38.6217 9.92L61.1217 56ZM49.7817 37.1L38.5017 14.24L27.4617 37.1H49.7817ZM76.7184 57.2C74.0384 57.2 71.5984 56.62 69.3984 55.46C67.1984 54.3 65.3984 52.72 63.9984 50.72V47.36C65.3184 49.96 67.0384 51.96 69.1584 53.36C71.2784 54.76 73.7384 55.46 76.5384 55.46C79.0584 55.46 81.2984 54.88 83.2584 53.72C85.2584 52.56 86.8184 50.94 87.9384 48.86C89.0584 46.74 89.6184 44.34 89.6184 41.66C89.6184 39.06 89.0784 36.74 87.9984 34.7C86.9184 32.66 85.3984 31.08 83.4384 29.96C81.5184 28.8 79.3384 28.22 76.8984 28.22H74.0184V26.54H75.9384C78.3384 26.54 80.3384 25.74 81.9384 24.14C83.5384 22.5 84.3384 20.48 84.3384 18.08C84.3384 16.16 83.6384 14.6 82.2384 13.4C80.8784 12.16 79.0984 11.54 76.8984 11.54C75.0584 11.54 73.3784 12 71.8584 12.92C70.3384 13.8 69.3384 14.96 68.8584 16.4V13.28C69.7784 12.16 70.9384 11.3 72.3384 10.7C73.7384 10.1 75.2984 9.8 77.0184 9.8C79.8184 9.8 82.0584 10.54 83.7384 12.02C85.4584 13.5 86.3184 15.52 86.3184 18.08C86.3184 22.44 84.2184 25.44 80.0184 27.08C83.4184 27.68 86.1984 29.28 88.3584 31.88C90.5184 34.44 91.5984 37.66 91.5984 41.54C91.5984 44.58 90.9384 47.3 89.6184 49.7C88.3384 52.06 86.5584 53.9 84.2784 55.22C81.9984 56.54 79.4784 57.2 76.7184 57.2ZM98.8064 11H100.726C103.886 11 106.206 11.74 107.686 13.22C109.166 14.66 109.906 16.8 109.906 19.64C109.906 21.28 109.426 22.86 108.466 24.38C107.506 25.86 106.346 26.86 104.986 27.38C108.426 27.94 111.086 29.38 112.966 31.7C114.846 34.02 115.786 37.06 115.786 40.82C115.786 43.82 115.126 46.48 113.806 48.8C112.486 51.08 110.666 52.86 108.346 54.14C106.066 55.38 103.526 56 100.726 56H98.8064V11ZM101.206 26.84C103.126 26.84 104.746 26.14 106.066 24.74C107.386 23.34 108.046 21.62 108.046 19.58C108.046 17.3 107.486 15.58 106.366 14.42C105.286 13.26 103.566 12.68 101.206 12.68H100.726V26.84H101.206ZM101.206 54.32C103.566 54.32 105.706 53.76 107.626 52.64C109.546 51.48 111.066 49.88 112.186 47.84C113.306 45.8 113.866 43.5 113.866 40.94C113.866 36.82 112.766 33.72 110.566 31.64C108.406 29.52 105.286 28.46 101.206 28.46H100.726V54.32H101.206ZM122.766 11H124.746V52.94L156.006 11H157.986V56H156.006V13.94L124.626 56H122.766V11ZM167.244 11H169.164C172.324 11 174.644 11.74 176.124 13.22C177.604 14.66 178.344 16.8 178.344 19.64C178.344 21.28 177.864 22.86 176.904 24.38C175.944 25.86 174.784 26.86 173.424 27.38C176.864 27.94 179.524 29.38 181.404 31.7C183.284 34.02 184.224 37.06 184.224 40.82C184.224 43.82 183.564 46.48 182.244 48.8C180.924 51.08 179.104 52.86 176.784 54.14C174.504 55.38 171.964 56 169.164 56H167.244V11ZM169.644 26.84C171.564 26.84 173.184 26.14 174.504 24.74C175.824 23.34 176.484 21.62 176.484 19.58C176.484 17.3 175.924 15.58 174.804 14.42C173.724 13.26 172.004 12.68 169.644 12.68H169.164V26.84H169.644ZM169.644 54.32C172.004 54.32 174.144 53.76 176.064 52.64C177.984 51.48 179.504 49.88 180.624 47.84C181.744 45.8 182.304 43.5 182.304 40.94C182.304 36.82 181.204 33.72 179.004 31.64C176.844 29.52 173.724 28.46 169.644 28.46H169.164V54.32H169.644ZM231.161 56H229.061L220.541 38.84H196.661L188.321 56H186.221L208.661 9.92L231.161 56ZM219.821 37.1L208.541 14.24L197.501 37.1H219.821ZM237.609 11H239.589V52.94L270.849 11H272.829V56H270.849V13.94L239.469 56H237.609V11ZM255.429 6.98C252.749 6.98 250.649 6.38 249.129 5.18C247.649 3.98 246.849 2.26 246.729 0.0199983H248.409C248.569 1.78 249.249 3.12 250.449 4.04C251.649 4.96 253.289 5.42 255.369 5.42C257.169 5.42 258.729 4.9 260.049 3.86C261.409 2.82 262.169 1.54 262.329 0.0199983H264.069C263.989 1.98 263.109 3.64 261.429 5C259.749 6.32 257.749 6.98 255.429 6.98ZM307.888 56L284.068 30.98V56H282.088V11H284.068V27.32L302.848 11H305.668L284.608 29L310.528 56H307.888ZM358.837 56H356.737L348.217 38.84H324.337L315.997 56H313.897L336.337 9.92L358.837 56ZM347.497 37.1L336.217 14.24L325.177 37.1H347.497Z" fill="black"/>
    <path d="M6.4655 57H7.4895C9.17483 57 10.4122 57.3947 11.2015 58.184C11.9908 58.952 12.3855 60.0933 12.3855 61.608C12.3855 62.4827 12.1295 63.3253 11.6175 64.136C11.1055 64.9253 10.4868 65.4587 9.7615 65.736C11.5962 66.0347 13.0148 66.8027 14.0175 68.04C15.0202 69.2773 15.5215 70.8987 15.5215 72.904C15.5215 74.504 15.1695 75.9227 14.4655 77.16C13.7615 78.376 12.7908 79.3253 11.5535 80.008C10.3375 80.6693 8.98283 81 7.4895 81H6.4655V57ZM7.7455 65.448C8.7695 65.448 9.6335 65.0747 10.3375 64.328C11.0415 63.5813 11.3935 62.664 11.3935 61.576C11.3935 60.36 11.0948 59.4427 10.4975 58.824C9.9215 58.2053 9.00417 57.896 7.7455 57.896H7.4895V65.448H7.7455ZM7.7455 80.104C9.00417 80.104 10.1455 79.8053 11.1695 79.208C12.1935 78.5893 13.0042 77.736 13.6015 76.648C14.1988 75.56 14.4975 74.3333 14.4975 72.968C14.4975 70.7707 13.9108 69.1173 12.7375 68.008C11.5855 66.8773 9.9215 66.312 7.7455 66.312H7.4895V80.104H7.7455ZM25.7078 81.512C24.2571 81.512 22.9451 81.16 21.7718 80.456C20.5984 79.7307 19.6811 78.7813 19.0198 77.608C18.3584 76.4133 18.0278 75.1227 18.0278 73.736C18.0278 72.3707 18.3584 71.1013 19.0198 69.928C19.7024 68.7547 20.6198 67.8267 21.7718 67.144C22.9451 66.44 24.2464 66.088 25.6758 66.088C27.0838 66.088 28.3638 66.44 29.5158 67.144C30.6891 67.8267 31.6064 68.7547 32.2678 69.928C32.9291 71.1013 33.2598 72.3707 33.2598 73.736C33.2598 75.1653 32.9398 76.4773 32.2998 77.672C31.6598 78.8453 30.7638 79.784 29.6118 80.488C28.4811 81.1707 27.1798 81.512 25.7078 81.512ZM25.7078 80.616C26.9238 80.616 28.0331 80.3067 29.0358 79.688C30.0384 79.0693 30.8171 78.248 31.3718 77.224C31.9478 76.1787 32.2358 75.0373 32.2358 73.8C32.2358 72.584 31.9478 71.4533 31.3718 70.408C30.7958 69.3627 30.0064 68.5307 29.0038 67.912C28.0011 67.2933 26.8918 66.984 25.6758 66.984C24.4598 66.984 23.3398 67.304 22.3158 67.944C21.3131 68.5627 20.5131 69.3947 19.9158 70.44C19.3398 71.4853 19.0518 72.616 19.0518 73.832C19.0518 75.048 19.3398 76.1787 19.9158 77.224C20.5131 78.248 21.3131 79.0693 22.3158 79.688C23.3398 80.3067 24.4704 80.616 25.7078 80.616ZM43.3015 81.512C41.8508 81.512 40.5388 81.16 39.3655 80.456C38.1922 79.7307 37.2748 78.7813 36.6135 77.608C35.9522 76.4133 35.6215 75.1227 35.6215 73.736C35.6215 72.3707 35.9522 71.1013 36.6135 69.928C37.2962 68.7547 38.2135 67.8267 39.3655 67.144C40.5388 66.44 41.8402 66.088 43.2695 66.088C44.6775 66.088 45.9575 66.44 47.1095 67.144C48.2828 67.8267 49.2002 68.7547 49.8615 69.928C50.5228 71.1013 50.8535 72.3707 50.8535 73.736C50.8535 75.1653 50.5335 76.4773 49.8935 77.672C49.2535 78.8453 48.3575 79.784 47.2055 80.488C46.0748 81.1707 44.7735 81.512 43.3015 81.512ZM43.3015 80.616C44.5175 80.616 45.6268 80.3067 46.6295 79.688C47.6322 79.0693 48.4108 78.248 48.9655 77.224C49.5415 76.1787 49.8295 75.0373 49.8295 73.8C49.8295 72.584 49.5415 71.4533 48.9655 70.408C48.3895 69.3627 47.6002 68.5307 46.5975 67.912C45.5948 67.2933 44.4855 66.984 43.2695 66.984C42.0535 66.984 40.9335 67.304 39.9095 67.944C38.9068 68.5627 38.1068 69.3947 37.5095 70.44C36.9335 71.4853 36.6455 72.616 36.6455 73.832C36.6455 75.048 36.9335 76.1787 37.5095 77.224C38.1068 78.248 38.9068 79.0693 39.9095 79.688C40.9335 80.3067 42.0642 80.616 43.3015 80.616ZM61.5033 66.088C62.9113 66.088 64.1913 66.44 65.3433 67.144C66.5166 67.8267 67.4339 68.7547 68.0953 69.928C68.7566 71.1013 69.0873 72.3707 69.0873 73.736C69.0873 75.1653 68.7673 76.4773 68.1273 77.672C67.4873 78.8453 66.5913 79.784 65.4393 80.488C64.3086 81.1707 63.0073 81.512 61.5353 81.512C60.1059 81.512 58.8046 81.16 57.6313 80.456C56.4579 79.752 55.5299 78.8133 54.8473 77.64C54.1859 76.4453 53.8553 75.1653 53.8553 73.8V72.552C53.8553 69.8427 54.1326 67.6347 54.6873 65.928C55.2633 64.2 56.1059 62.8347 57.2153 61.832C58.3246 60.8293 59.7859 59.9653 61.5993 59.24L67.3273 56.936V57.864L61.8233 60.104C59.6473 60.9787 57.9833 62.1627 56.8313 63.656C55.6793 65.128 55.0286 67.1973 54.8793 69.864C55.5406 68.712 56.4473 67.7947 57.5993 67.112C58.7726 66.4293 60.0739 66.088 61.5033 66.088ZM61.5353 80.616C62.7513 80.616 63.8606 80.3067 64.8633 79.688C65.8659 79.0693 66.6446 78.248 67.1993 77.224C67.7753 76.1787 68.0633 75.0373 68.0633 73.8C68.0633 72.584 67.7753 71.4533 67.1993 70.408C66.6233 69.3627 65.8339 68.5307 64.8313 67.912C63.8286 67.2933 62.7193 66.984 61.5033 66.984C60.2873 66.984 59.1673 67.304 58.1433 67.944C57.1406 68.5627 56.3406 69.3947 55.7433 70.44C55.1673 71.4853 54.8793 72.616 54.8793 73.832C54.8793 75.048 55.1673 76.1787 55.7433 77.224C56.3406 78.248 57.1406 79.0693 58.1433 79.688C59.1673 80.3067 60.2979 80.616 61.5353 80.616ZM72.3285 66.6H73.3525V70.12C73.9285 68.968 74.8245 68.04 76.0405 67.336C77.2565 66.6107 78.5365 66.248 79.8805 66.248C81.2672 66.248 82.5365 66.5893 83.6885 67.272C84.8618 67.9547 85.7898 68.872 86.4725 70.024C87.1552 71.176 87.4965 72.4347 87.4965 73.8C87.4965 75.1653 87.1552 76.424 86.4725 77.576C85.7898 78.728 84.8618 79.6453 83.6885 80.328C82.5365 81.0107 81.2672 81.352 79.8805 81.352C78.5792 81.352 77.3205 81 76.1045 80.296C74.9098 79.592 73.9925 78.664 73.3525 77.512V87.4H72.3285V66.6ZM79.9445 80.456C81.1178 80.456 82.2058 80.1573 83.2085 79.56C84.2112 78.9413 85.0005 78.1307 85.5765 77.128C86.1738 76.104 86.4725 74.9947 86.4725 73.8C86.4725 72.6267 86.1738 71.528 85.5765 70.504C84.9792 69.48 84.1792 68.6693 83.1765 68.072C82.1738 67.4533 81.0858 67.144 79.9125 67.144C78.7392 67.144 77.6405 67.4533 76.6165 68.072C75.6138 68.6907 74.8032 69.512 74.1845 70.536C73.5872 71.56 73.2885 72.6587 73.2885 73.832C73.2885 75.0053 73.5872 76.104 74.1845 77.128C74.8032 78.1307 75.6245 78.9413 76.6485 79.56C77.6725 80.1573 78.7712 80.456 79.9445 80.456ZM97.4875 81.352C96.1222 81.352 94.8528 81.0107 93.6795 80.328C92.5062 79.6453 91.5782 78.728 90.8955 77.576C90.2128 76.4027 89.8715 75.144 89.8715 73.8C89.8715 72.456 90.2128 71.208 90.8955 70.056C91.5782 68.8827 92.5062 67.9547 93.6795 67.272C94.8528 66.5893 96.1222 66.248 97.4875 66.248C98.8742 66.248 100.186 66.6213 101.424 67.368C102.661 68.0933 103.525 69.0427 104.016 70.216V66.6H105.04V81H104.016V77.416C103.44 78.6107 102.544 79.5707 101.328 80.296C100.133 81 98.8528 81.352 97.4875 81.352ZM97.5515 80.456C98.7248 80.456 99.8128 80.1573 100.816 79.56C101.818 78.9413 102.608 78.1307 103.184 77.128C103.781 76.104 104.08 74.9947 104.08 73.8C104.08 72.6267 103.781 71.528 103.184 70.504C102.586 69.48 101.786 68.6693 100.784 68.072C99.7808 67.4533 98.6928 67.144 97.5195 67.144C96.3462 67.144 95.2475 67.4533 94.2235 68.072C93.2208 68.6907 92.4102 69.512 91.7915 70.536C91.1942 71.56 90.8955 72.6587 90.8955 73.832C90.8955 75.0053 91.1942 76.104 91.7915 77.128C92.4102 78.1307 93.2315 78.9413 94.2555 79.56C95.2795 80.1573 96.3782 80.456 97.5515 80.456ZM115.639 72.36L110.007 66.6H111.159L115.767 71.24V66.6H116.791V71.24L121.399 66.6H122.551L116.919 72.36L125.335 81H123.958L116.791 73.608V81H115.767V73.608L108.599 81H107.223L115.639 72.36ZM133.243 80.488C134.352 80.488 135.408 80.2 136.411 79.624C137.413 79.048 138.245 78.2587 138.907 77.256V78.888C138.117 79.7627 137.253 80.4027 136.315 80.808C135.376 81.192 134.309 81.384 133.115 81.384C131.792 81.384 130.544 81.032 129.371 80.328C128.219 79.624 127.291 78.6853 126.587 77.512C125.904 76.3387 125.563 75.0907 125.563 73.768C125.563 72.3387 125.904 71.0587 126.587 69.928C127.269 68.776 128.197 67.88 129.371 67.24C130.565 66.6 131.888 66.28 133.339 66.28C135.557 66.28 137.445 67.1547 139.003 68.904L128.955 78.824C129.659 79.4 130.341 79.8267 131.003 80.104C131.664 80.36 132.411 80.488 133.243 80.488ZM126.587 73.672C126.587 75.4427 127.173 76.9573 128.347 78.216L137.723 68.904C137.019 68.2853 136.336 67.848 135.675 67.592C135.013 67.3147 134.224 67.176 133.307 67.176C132.005 67.176 130.843 67.464 129.819 68.04C128.816 68.5947 128.027 69.3627 127.451 70.344C126.875 71.3253 126.587 72.4347 126.587 73.672ZM142.588 66.6H143.612V74.696H153.372V66.6H154.396V81H153.372V75.592H143.612V81H142.588V66.6ZM159.181 66.6H160.173V79.56L170.509 66.6H171.437V81H170.445V68.072L160.077 81H159.181V66.6ZM182.868 80.488C183.977 80.488 185.033 80.2 186.036 79.624C187.038 79.048 187.87 78.2587 188.532 77.256V78.888C187.742 79.7627 186.878 80.4027 185.94 80.808C185.001 81.192 183.934 81.384 182.74 81.384C181.417 81.384 180.169 81.032 178.996 80.328C177.844 79.624 176.916 78.6853 176.212 77.512C175.529 76.3387 175.188 75.0907 175.188 73.768C175.188 72.3387 175.529 71.0587 176.212 69.928C176.894 68.776 177.822 67.88 178.996 67.24C180.19 66.6 181.513 66.28 182.964 66.28C185.182 66.28 187.07 67.1547 188.628 68.904L178.58 78.824C179.284 79.4 179.966 79.8267 180.628 80.104C181.289 80.36 182.036 80.488 182.868 80.488ZM176.212 73.672C176.212 75.4427 176.798 76.9573 177.972 78.216L187.348 68.904C186.644 68.2853 185.961 67.848 185.3 67.592C184.638 67.3147 183.849 67.176 182.932 67.176C181.63 67.176 180.468 67.464 179.444 68.04C178.441 68.5947 177.652 69.3627 177.076 70.344C176.5 71.3253 176.212 72.4347 176.212 73.672ZM199.244 66.6H200.236V79.56L210.572 66.6H211.5V81H210.508V68.072L200.14 81H199.244V66.6ZM233.962 79.88H233.738C231.732 79.88 229.866 79.3787 228.138 78.376C226.431 77.3733 225.066 76.0293 224.042 74.344C223.039 72.6587 222.538 70.8453 222.538 68.904C222.538 66.984 223.039 65.192 224.042 63.528C225.066 61.864 226.431 60.5413 228.138 59.56C229.866 58.5573 231.722 58.056 233.706 58.056H233.962V56.2H235.018V58.056H235.242C237.247 58.056 239.103 58.5573 240.81 59.56C242.538 60.5627 243.903 61.9067 244.906 63.592C245.93 65.2773 246.442 67.08 246.442 69C246.442 70.92 245.93 72.7227 244.906 74.408C243.882 76.072 242.506 77.4053 240.778 78.408C239.071 79.3893 237.226 79.88 235.242 79.88H235.018V81.8H233.962V79.88ZM233.962 79.016V58.92H233.706C231.914 58.92 230.239 59.3787 228.682 60.296C227.124 61.192 225.887 62.408 224.97 63.944C224.052 65.48 223.594 67.144 223.594 68.936C223.594 70.728 224.052 72.4027 224.97 73.96C225.887 75.496 227.124 76.7227 228.682 77.64C230.239 78.5573 231.924 79.016 233.738 79.016H233.962ZM235.242 79.016C237.034 79.016 238.708 78.5573 240.266 77.64C241.844 76.7227 243.092 75.496 244.01 73.96C244.948 72.424 245.418 70.7707 245.418 69C245.418 67.2293 244.948 65.576 244.01 64.04C243.071 62.4827 241.823 61.2453 240.266 60.328C238.708 59.3893 237.044 58.92 235.274 58.92H235.018V79.016H235.242ZM256.831 81.352C255.466 81.352 254.197 81.0107 253.023 80.328C251.85 79.6453 250.922 78.728 250.239 77.576C249.557 76.4027 249.215 75.144 249.215 73.8C249.215 72.456 249.557 71.208 250.239 70.056C250.922 68.8827 251.85 67.9547 253.023 67.272C254.197 66.5893 255.466 66.248 256.831 66.248C258.218 66.248 259.53 66.6213 260.767 67.368C262.005 68.0933 262.869 69.0427 263.359 70.216V66.6H264.383V81H263.359V77.416C262.783 78.6107 261.887 79.5707 260.671 80.296C259.477 81 258.197 81.352 256.831 81.352ZM256.895 80.456C258.069 80.456 259.157 80.1573 260.159 79.56C261.162 78.9413 261.951 78.1307 262.527 77.128C263.125 76.104 263.423 74.9947 263.423 73.8C263.423 72.6267 263.125 71.528 262.527 70.504C261.93 69.48 261.13 68.6693 260.127 68.072C259.125 67.4533 258.037 67.144 256.863 67.144C255.69 67.144 254.591 67.4533 253.567 68.072C252.565 68.6907 251.754 69.512 251.135 70.536C250.538 71.56 250.239 72.6587 250.239 73.832C250.239 75.0053 250.538 76.104 251.135 77.128C251.754 78.1307 252.575 78.9413 253.599 79.56C254.623 80.1573 255.722 80.456 256.895 80.456ZM268.806 66.6H269.83V74.696H279.59V66.6H280.614V81H279.59V75.592H269.83V81H268.806V66.6ZM288.984 67.528H283.48V66.632H295.512V67.528H290.008V81H288.984V67.528ZM304.8 81.352C303.435 81.352 302.165 81.0107 300.992 80.328C299.819 79.6453 298.891 78.728 298.208 77.576C297.525 76.4027 297.184 75.144 297.184 73.8C297.184 72.456 297.525 71.208 298.208 70.056C298.891 68.8827 299.819 67.9547 300.992 67.272C302.165 66.5893 303.435 66.248 304.8 66.248C306.187 66.248 307.499 66.6213 308.736 67.368C309.973 68.0933 310.837 69.0427 311.328 70.216V66.6H312.352V81H311.328V77.416C310.752 78.6107 309.856 79.5707 308.64 80.296C307.445 81 306.165 81.352 304.8 81.352ZM304.864 80.456C306.037 80.456 307.125 80.1573 308.128 79.56C309.131 78.9413 309.92 78.1307 310.496 77.128C311.093 76.104 311.392 74.9947 311.392 73.8C311.392 72.6267 311.093 71.528 310.496 70.504C309.899 69.48 309.099 68.6693 308.096 68.072C307.093 67.4533 306.005 67.144 304.832 67.144C303.659 67.144 302.56 67.4533 301.536 68.072C300.533 68.6907 299.723 69.512 299.104 70.536C298.507 71.56 298.208 72.6587 298.208 73.832C298.208 75.0053 298.507 76.104 299.104 77.128C299.723 78.1307 300.544 78.9413 301.568 79.56C302.592 80.1573 303.691 80.456 304.864 80.456ZM319.239 81.416C317.511 81.416 316.103 80.6907 315.015 79.24V77.48C315.356 78.3973 315.89 79.1333 316.615 79.688C317.362 80.2427 318.258 80.52 319.303 80.52C320.476 80.52 321.415 80.1573 322.119 79.432C322.844 78.7067 323.207 77.7147 323.207 76.456C323.207 75.24 322.812 74.2587 322.023 73.512C321.255 72.7653 320.316 72.392 319.207 72.392H318.439V71.496H319.079C319.74 71.496 320.306 71.2827 320.775 70.856C321.266 70.408 321.511 69.864 321.511 69.224C321.511 68.6267 321.33 68.136 320.967 67.752C320.604 67.3467 320.092 67.144 319.431 67.144C318.279 67.144 317.436 67.72 316.903 68.872V67.304C317.586 66.664 318.439 66.344 319.463 66.344C320.338 66.344 321.052 66.632 321.607 67.208C322.162 67.784 322.439 68.4667 322.439 69.256C322.439 69.8533 322.268 70.376 321.927 70.824C321.586 71.272 321.138 71.6027 320.583 71.816C321.628 72.0507 322.492 72.5733 323.175 73.384C323.879 74.1733 324.231 75.1973 324.231 76.456C324.231 77.9067 323.762 79.1013 322.823 80.04C321.906 80.9573 320.711 81.416 319.239 81.416ZM327.9 66.6H328.892V79.56L339.228 66.6H340.156V81H339.164V68.072L328.796 81H327.9V66.6ZM347.555 75.944C346.488 75.688 345.624 75.1333 344.963 74.28C344.323 73.4053 344.003 72.3707 344.003 71.176C344.003 70.3867 344.216 69.64 344.643 68.936C345.069 68.232 345.645 67.6667 346.371 67.24C347.096 66.8133 347.885 66.6 348.739 66.6H350.659V81H349.635V76.04H348.579L344.931 81H343.843L347.555 75.944ZM349.635 75.176V67.464H348.675C348.035 67.464 347.427 67.6453 346.851 68.008C346.275 68.3707 345.805 68.8507 345.443 69.448C345.101 70.024 344.931 70.6427 344.931 71.304C344.931 71.9653 345.101 72.5947 345.443 73.192C345.805 73.7893 346.275 74.2693 346.851 74.632C347.427 74.9947 348.035 75.176 348.675 75.176H349.635Z" fill="#001038"/>
</svg>
