<?xml version="1.0"?>
<svg xmlns:rdf="http://www.w3.org/1999/02/22-rdf-syntax-ns#" xmlns="http://www.w3.org/2000/svg" xmlns:cc="http://web.resource.org/cc/" xmlns:xlink="http://www.w3.org/1999/xlink" xmlns:dc="http://purl.org/dc/elements/1.1/" xmlns:svg="http://www.w3.org/2000/svg" space="preserve" viewBox="0 0 461.305 376.775" enable-background="new 0 0 461.305 376.775" overflow="visible">
  <g id="Layer_1">
    <g clip-rule="evenodd" fill-rule="evenodd">
      <path d="m194.58 76.32h-0.18l4.212 3.096 1.368 0.18 1.512-2.268-0.288-1.188-5.58-0.324-1.04 0.504z" fill="#E8E800"/>
      <path d="m195.48 75.528h-0.18l4.212 3.168 1.368 0.144 1.332-2.412-0.288-1.008-5.544-0.324-0.9 0.432z" fill="#DBDB00"/>
      <path d="m190.4 86.328h-0.18l4.176 3.168 1.404 0.144 1.476-2.232-0.288-1.188-5.58-0.324-1.01 0.432z" fill="#E8E800"/>
      <path d="m191.3 85.608h-0.18l4.176 3.132 1.404 0.18 1.3-2.412-0.288-1.08-5.508-0.288-0.9 0.468z" fill="#DBDB00"/>
      <path d="m170.28 76.32l-12.276-10.08-21.92-22.032-8.28-10.512-5.508-10.62-3.49-11.268-1.476-10.8v-1.008l4.5 5.076 3.168 1.62 1.62-0.288 1.692-2.088 0.9-2.7 5.4 12.6 7.92 13.5 10.188 13.068 15.48 15.408 10.8 8.244 2.988 1.8-11.7 10.08z" fill="#7F4008"/>
      <path d="m161.89 63.72l-11.7-9.18-9.79-10.332-5.688-9.108-5.4-12.312-0.288-1.8 0.468 0.288 18.11 24.912 1.692 1.008 1.008-2.808 1.404 0.288 10.3 8.64 14.112 13.824-6.732 4.176-7.49-7.596z"/>
      <path d="m163.51 115.02l-1.008 0.108-2.7 2.592 2.808 0.576 1.512 2.844 0.9-0.144 1.8-2.268-2.412-3.312-0.9-0.4z" fill="#E8E800"/>
      <path d="m164.41 113.94l-1.008 0.18-2.7 2.52 2.808 0.576 1.512 2.88 0.9-0.18 1.8-2.196-2.412-3.312-0.9-0.47z" fill="#DBDB00"/>
      <path d="m142.52 182.74h-0.144l3.744 2.88 1.98 0.432 1.296-2.232-0.288-1.188-5.688-0.288-0.9 0.4z" fill="#E8E800"/>
      <path d="m143.42 182.02h-0.144l3.744 2.844 1.98 0.468 1.296-2.268-0.288-1.224-5.688-0.288-0.9 0.47z" fill="#DBDB00"/>
      <path d="m146.7 96.408h-0.108l3.708 2.808 1.98 0.504 1.332-2.304-0.288-1.188-5.72-0.288-0.9 0.468z" fill="#E8E800"/>
      <path d="m147.6 95.616h-0.108l3.708 2.88 1.98 0.432 1.332-2.232-0.288-1.188-5.72-0.288-0.9 0.396z" fill="#DBDB00"/>
      <path d="m152.42 139.86l-0.072 0.108-0.072 0.108v0.432l0.072 0.108 0.072 0.144 0.036 0.108 0.072 0.108 0.108 0.144 0.144 0.108 0.108 0.108 0.11 0.14 0.144 0.036 0.18 0.072 0.18 0.072 0.108 0.108 0.18 0.072 0.18 0.036h0.828l0.144-0.036 0.108-0.072 0.108-0.072 0.144-0.036 0.036-0.072 0.144-0.108 0.036-0.144 0.072-0.108v-0.108l0.072-0.144v-0.396l-0.072-0.18-0.072-0.144-0.036-0.108-0.072-0.108-0.108-0.144-0.144-0.108-0.108-0.108-0.108-0.144-0.14-0.04-0.18-0.144-0.108-0.108h-0.18l-0.18-0.072h-0.828l-0.144 0.072-0.18 0.07-0.108 0.036-0.108 0.072-0.144 0.072-0.036 0.036-0.144 0.144-0.036 0.108v0.07z" fill="#E8E800"/>
      <path d="m152.42 139.25l-0.072 0.108-0.072 0.144v0.288l0.072 0.108 0.072 0.144 0.036 0.108 0.072 0.108 0.108 0.144 0.072 0.108 0.108 0.108 0.144 0.144 0.18 0.108 0.108 0.072 0.18 0.036 0.18 0.072 0.108 0.108 0.18 0.072 0.18 0.072h0.792l0.108-0.072 0.144-0.072 0.108-0.036 0.108-0.072 0.144-0.072 0.036-0.108 0.072-0.108 0.108-0.144v-0.108l0.072-0.108v-0.324l-0.072-0.108-0.036-0.18-0.072-0.108-0.072-0.144-0.108-0.108-0.072-0.108-0.108-0.144-0.108-0.108-0.18-0.108-0.144-0.072-0.18-0.108-0.108-0.144h-0.18l-0.18-0.036h-0.18l-0.18-0.072h-0.288l-0.144 0.072h-0.18l-0.108 0.036-0.108 0.072-0.144 0.072-0.108 0.036-0.108 0.144-0.072 0.036-0.072 0.144-0.04 0.11z" fill="#DBDB00"/>
      <path d="m185.9 109.73l-0.072 0.108-0.072 0.144v0.288l0.072 0.108 0.072 0.144 0.036 0.108 0.072 0.108 0.108 0.144 0.072 0.108 0.108 0.108 0.144 0.144 0.18 0.108 0.108 0.072 0.18 0.036 0.18 0.072 0.108 0.108 0.18 0.072 0.18 0.072h0.612l0.18-0.072h0.108l0.144-0.108 0.108-0.072 0.108-0.072 0.144-0.108 0.04-0.11 0.072-0.144 0.108-0.18v-0.036l0.072-0.144v-0.288l-0.072-0.108-0.036-0.144-0.072-0.108-0.07-0.11-0.108-0.144-0.072-0.108-0.108-0.108-0.108-0.144-0.18-0.108-0.144-0.072-0.18-0.036-0.108-0.144h-0.18l-0.18-0.036h-0.18l-0.18-0.072h-0.288l-0.144 0.072h-0.18l-0.108 0.036-0.108 0.072-0.144 0.072-0.108 0.036-0.108 0.144-0.072 0.036-0.072 0.144-0.04 0.11z" fill="#E8E800"/>
      <path d="m186.01 109.12l-0.072 0.144-0.036 0.108v0.432l0.036 0.108 0.072 0.108 0.072 0.144 0.108 0.108 0.072 0.108 0.108 0.144 0.18 0.108 0.108 0.108 0.18 0.072 0.144 0.072 0.216 0.036 0.144 0.072 0.18 0.072 0.18 0.036h0.576l0.18-0.036h0.144l0.108-0.072 0.108-0.072 0.144-0.108 0.108-0.072 0.072-0.108 0.036-0.108 0.144-0.18v-0.504l-0.072-0.108-0.072-0.108-0.036-0.144-0.072-0.108-0.07-0.11-0.108-0.144-0.108-0.108-0.144-0.108-0.108-0.144-0.108-0.036-0.18-0.072-0.144-0.108h-0.18l-0.18-0.072h-0.18l-0.18-0.072h-0.288l-0.108 0.072h-0.18l-0.144 0.072-0.108 0.036-0.108 0.072-0.144 0.072-0.108 0.108-0.072 0.072-0.036 0.108-0.07 0.11z" fill="#DBDB00"/>
      <path d="m137.3 159.23l-0.072 0.108-0.072 0.144v0.288l0.072 0.108 0.072 0.144 0.036 0.108 0.072 0.108 0.108 0.144 0.072 0.108 0.108 0.108 0.144 0.144 0.18 0.108 0.108 0.072 0.18 0.036 0.18 0.072 0.108 0.072 0.18 0.036h0.18l0.18 0.072h0.324l0.108-0.072h0.18l0.108-0.036 0.144-0.072 0.108-0.072 0.108-0.036 0.144-0.144 0.036-0.036 0.072-0.144 0.108-0.18v-0.36l-0.036-0.108v-0.108l-0.072-0.144-0.072-0.108-0.036-0.108-0.072-0.144-0.108-0.108-0.144-0.108-0.108-0.144-0.108-0.108-0.144-0.072-0.18-0.036-0.108-0.144-0.18-0.036-0.18-0.072-0.18-0.072h-0.612l-0.18 0.072h-0.108l-0.108 0.108-0.144 0.072-0.108 0.072-0.108 0.108-0.072 0.108-0.072 0.144-0.04 0.11z" fill="#E8E800"/>
      <path d="m137.41 158.44l-0.072 0.18-0.036 0.144v0.468l0.036 0.108 0.072 0.18 0.072 0.144 0.036 0.108 0.144 0.108 0.108 0.144 0.108 0.108 0.144 0.108 0.108 0.072 0.18 0.072 0.18 0.036 0.108 0.072 0.18 0.072h0.18l0.18 0.036h0.324l0.18-0.036h0.18l0.108-0.072 0.108-0.072 0.144-0.036 0.108-0.072 0.072-0.108 0.108-0.072 0.072-0.108 0.036-0.18v-0.072l0.072-0.108v-0.432l-0.072-0.108-0.036-0.144-0.072-0.108-0.072-0.108-0.108-0.144-0.108-0.108-0.144-0.108-0.108-0.144-0.108-0.036-0.18-0.072-0.144-0.108-0.18-0.072-0.18-0.072-0.18-0.036h-0.756l-0.18 0.036-0.144 0.072-0.108 0.072-0.108 0.036-0.072 0.072-0.108 0.108-0.072 0.144v0.04z" fill="#DBDB00"/>
      <path d="m123.3 118.3l-6.696 13.932-8.6 12.89-9.108 10.8-17.1 16.632-11.412 8.1-6.3 2.88-5.076 0.9-3.924-0.18-6.768-1.8-11.232-5.22-17.856-10.37-18-8.532-1.224-0.79 5.112 0.9 5.868-1.188 8.532-4.788 10.8-9.432 10.08-12.888 21.42-30.744 10.512-11.88 12.276-9.396 11.412-6.804 13.068-5.508 11.232-2.988 9.18-1.224h7.308l8.712 1.224 8.388 2.376 9.612 4.32 6.768 4.212-40.356 38.088-6.62 6.48z" fill="#406F1E"/>
      <path d="m137.59 89.64l-5.688-1.62h-5.724l-5.976 1.8-6.804 3.888-5.22 4.32-5.58 8.28-9.9 17.208-6.408 7.92-7.812 6.3-13.968 7.524-16.488 5.976-16.344 4.1-9 1.476 6.732 1.044 7.812-0.324 10.8-2.196 22.68-8.604 13.608-7.02 8.892-6.48 5.796-7.31 11.7-22.032 4.104-4.788 7.2-5.58 7.308-3.132 5.292-0.756h2.99z" fill="#7FAE4E"/>
      <path d="m170.28 71.316l-11.376 4.5-9.18 5.112-10.224 8.1-11.376 13.068-6.732 10.8-4.68 10.944-2.412 9.396-1.476 10.512-0.612 16.2 0.792 17.388 2.7 18.9 4.32 17.244 4.5 12.889 6.48 14.578 9.396 16.201 12.492 17.207 18.72 21.602 16.092 15.73 13.608 11.088 14.4 9 19.513 9.504 20.088 8.102 9.791 1.908 12.42 1.512 6.877 2.699 10.512 8.389 5.867 2.088 7.201 0.791 24.119-1.188 12.313-0.504 8.389 1.08 6.479 2.412 12.42 6.912 6.301 1.295h9l9.791-1.906 4.934-1.801 9.467 2.412 6.912 0.396 8.1-1.189 7.201-3.311 7.596-6.121 6.48-8.568 3.744-8.207 2.088-8.279 1.08-10.514v-10.332l-1.512-14.867-0.9-5.221 4.5-8.711 3.131-10.188 1.693-13.5v-11.988l-1.514-13.645-3.6-19.656-11.879-49.032-6.121-29.52-4.391-14.508-5.076-11.592-6.912-10.908-10.908-12.6-15.8-14.292-17.389-13.212-20.088-12.6-14.219-7.308-17.1-6.408-19.98-5.004-21.313-3.276-20.988-1.8h-13.031l-14.113 1.656-11.555 2.844-9.72 3.456-14.112 7.2-13.39 9.252-12.6 11.592-5.22 5.796z" fill="#F7F619"/>
      <path d="m449.42 297.58l2.699 8.279 0.576 6.301-1.908 26.1-1.979 9.145-3.889 8.568-6.119 7.92-7.201 5.58-5.904 1.799-9.719 0.9h-8.102l-10.979-1.799-3.6 0.719-4.32 1.801h-11.701l-9.576-1.332-3.023-1.656-3.779-5.4-3.996-1.943-13.104-2.268-11.809-0.613-6.912 0.504-17.389 2.988-4.5-0.469-3.6-2.123-5.58-6.408-4.5-1.98-10.332-1.008-8.279-1.223-26.209-6.48-12.887-5.076-15.012-8.531-18.468-12.781-17.42-14.69-12.276-11.664-6.732-8.279-3.78-6.301-3.6-10.297-3.6-14.723-2.088-15.877 0.18-8.1 1.476-6.301 2.412-3.203 2.088-1.188h4.212l8.712 3.887 17.82 12.205 44.676 33.695 14.004 8.281 6.299 2.123 2.988-0.18 3.6-2.232 2.232-4.211 1.801-7.777 1.98-23.58 1.475-5.543 1.332-1.656 1.801-0.432 2.412 0.719 5.688 4.969 10.801 13.824 25.668 37.008 8.531 9.611 4.393 2.988 3.42 0.289 2.879-1.477 3.277-4.5 4.643-11.52 4.969-13.213 3.133-4.393 1.799-1.188 2.988-0.287 5.867 2.555 14.113 12.313 10.188 8.389 4.824 1.943 2.375 0.18 4.213-1.799 5.111-5.113 14.221-20.699 4.68-3.889 1.801-0.504 2.807 0.611 4.969 3.781 6.121 7.631 7.811 12.781 7.81 15.52z" fill="#E8E800"/>
      <path d="m424.4 371.38l-9.613 0.322-6.479-1.223-7.92-3.889-4.068-4.211-1.045-4.178 0.613-7.523 1.799-5.795 0.721-0.324 2.412 5.543 2.879 7.057 3.602 3.42 8.207 3.6 7.381 1.801 12.887 0.9 0.145 0.611-6.119 2.699-5.4 1.19z" fill="#DBDB00"/>
      <path d="m450.32 318.6l-1.332-9.324-2.988-8.207-4.104-6.408-6.697-5.904-5.398-2.52-1.225 0.432-0.289 1.512 2.521 8.389 4.787 14.688 7.381 30.6 1.943 4.934 0.9 0.18 1.477-3.313 2.123-11.988 0.9-13.07z" fill="#DBDB00"/>
      <path d="m208.22 245.56h-1.044l-4.068 3.313-0.432 1.078 3.924 0.434 2.376 4.68 1.224-0.18 2.988-3.025v-1.188l-2.88-3.889-2.09-1.22z" fill="#E8E800"/>
      <path d="m209.59 243.94h-1.08l-3.6 2.844-0.72 1.477 3.888 0.504 2.412 4.607 1.188-0.107 2.844-2.879v-1.332l-3.42-4.393-1.51-0.72z" fill="#DBDB00"/>
      <path d="m302.72 122.51l7.199 1.908 7.955 4.392 9.613 8.208 16.813 19.044 7.775 13.176 14.4 28.225 4.32 5.688 2.41 1.367 1.369-0.287 1.619-2.412 1.693-6.156 2.412-21.024 1.799-14.796 1.801-7.992 1.908-4.32 2.592-2.268 3.096-0.432 4.104 1.188 9 5.112 16.775 11.52 4.645 2.088 1.801 0.18 1.98-1.188 1.799-3.78 1.008-6.912v-8.82l-1.332-11.556-2.879-11.34-4.176-9.612-6.445-8.712-11.7-11.092-39.89-31.068-12.6-6.912-29.088-13.32-13.104-4.5-4.5-0.432-2.197 0.612-0.611 1.908 1.801 4.392 19.19 27.252 4.32 8.568 0.611 4.212-1.332 2.988-3.779 1.62-5.689 0.612h-7.307l-39.492-3.924-10.908-0.288-6.625 0.792-4.967 1.908-3.6 2.988-3.709 6.012-2.879 9.288-1.045 10.224 0.324 7.956 1.801 8.424 2.375 4.716 2.412 1.98 3.42 0.432 4.5-0.72 9.18-2.988 25.31-10.22 9.611-2.088 3.492-0.108 1.62 0.29z" fill="#F9F980"/>
      <path d="m369.61 135.54l-1.332 0.108-3.779 3.492v0.396l3.779 0.504 2.232 4.5 0.9-0.18 2.879-2.844v-1.188l-3.168-4.068-1.51-0.72z" fill="#E8E800"/>
      <path d="m370.98 134.03h-0.9l-3.889 3.132-0.287 0.9 3.6 0.468 2.375 4.32 0.9-0.108 2.701-2.7v-1.404l-3.277-4.176-1.22-0.43z" fill="#DBDB00"/>
      <path d="m296.71 190.12h-0.898l-3.889 3.133-0.324 0.9 3.6 0.467 2.412 4.32 0.9-0.107 2.699-2.699v-1.369l-3.311-4.211-1.19-0.43z" fill="#E8E800"/>
      <path d="m297.9 188.64l-1.297 0.108-3.492 2.988-0.107 0.791 3.6 0.613 2.088 4.32 1.008-0.145 2.881-2.701v-1.367l-3.168-3.888-1.51-0.72z" fill="#DBDB00"/>
      <path d="m362.88 244.26l-1.475 0.109-4.68 3.779-0.721 1.332 4.896 0.576 1.799 3.203 1.404 2.701 1.188-0.182 3.313-2.844 0.576-1.799-2.557-4.176-3.42-2.701h-0.32z" fill="#E8E800"/>
      <path d="m364.68 242.14l-1.477 0.143-4.68 3.781-0.611 1.477 4.68 0.432 1.619 2.988 1.514 3.023 1.188-0.145 3.168-2.699 0.611-2.268-2.699-4.5-3.168-2.232h-0.14z" fill="#DBDB00"/>
      <path d="m404.42 212.04h-1.045l-3.6 2.807-0.756 1.512 3.889 0.576 2.412 4.645 1.188-0.145 2.881-2.988v-1.367l-3.492-4.32-1.48-0.72z" fill="#E8E800"/>
      <path d="m405.79 210.35h-1.08l-3.6 2.881-0.719 1.439 3.887 0.611 2.412 4.682 1.188-0.182 2.846-3.023v-1.295l-3.42-4.32-1.52-0.79z" fill="#DBDB00"/>
      <path d="m413.28 269.28l-1.475 0.182-4.682 3.707-0.611 1.512 4.68 0.469 1.621 2.988 1.512 3.023 1.188-0.18 3.168-2.701 0.611-2.23-2.699-4.5-3.168-2.27h-0.14z" fill="#E8E800"/>
      <path d="m414.9 267.34l-1.477 0.145-4.645 3.779-0.756 1.297 4.969 0.611 1.619 2.988 1.369 2.881 1.223-0.182 3.277-2.807 0.719-1.801-2.52-4.211-3.455-2.701h-0.32z" fill="#DBDB00"/>
      <path d="m356.11 328.07l-1.512 0.107-4.5 3.781-0.576 1.512 4.68 0.432 1.621 2.988 1.477 2.879 1.223-0.18 3.277-2.809 0.611-1.799-2.52-4.213-3.492-2.699h-0.29z" fill="#E8E800"/>
      <path d="m357.91 325.98l-1.512 0.107-4.609 3.779-0.611 1.514 4.645 0.395 1.656 3.025 1.332 2.879 1.08 0.109 3.311-2.521 1.008-2.268-2.699-4.5-3.313-2.52h-0.29z" fill="#DBDB00"/>
      <path d="m285.62 305.57l-1.619 0.107-5.293 4.393-0.432 1.332 4.932 0.576 1.801 2.699 1.512 3.6 1.188 0.182 3.602-2.881 1.08-2.377-2.881-4.932-3.42-2.699h-0.47z" fill="#E8E800"/>
      <path d="m287.42 303.3h-1.045l-4.355 2.988-2.123 2.879 5.291 0.611 1.621 2.377 1.799 3.924 1.08 0.107 3.6-2.807 1.01-2.412-2.701-4.68-3.707-2.988h-0.47z" fill="#DBDB00"/>
      <path d="m197.89 171.94l-1.08 0.18-2.7 2.52 2.88 0.612 1.512 2.88 0.9-0.18 1.8-2.232-2.412-3.276-0.9-0.5z" fill="#E8E800"/>
      <path d="m198.79 170.93l-1.08 0.108-2.7 2.592 2.88 0.612 1.512 2.808 0.9-0.108 1.8-2.304-2.412-3.276-0.9-0.43z" fill="#DBDB00"/>
      <path d="m231.48 120.82l-1.08 0.18-2.7 2.52 2.88 0.612 1.512 2.88 0.9-0.18 1.799-2.232-2.412-3.276-0.9-0.5z" fill="#E8E800"/>
      <path d="m232.38 119.81l-1.079 0.108-2.7 2.592 2.88 0.612 1.512 2.808 0.9-0.108 1.799-2.304-2.412-3.276-0.9-0.43z" fill="#DBDB00"/>
      <path d="m254.88 68.04l-1.078 0.18-2.701 2.52 2.881 0.576 1.512 2.88 0.9-0.18 1.799-2.196-2.412-3.312-0.9-0.468z" fill="#E8E800"/>
      <path d="m255.78 66.996l-1.08 0.144-2.52 2.556 2.699 0.612 1.514 2.808 0.719-0.108 1.801-2.088-0.107-1.08-2.881-2.844h-0.14z" fill="#DBDB00"/>
      <path d="m218.88 198.65h-0.18l4.212 3.168 1.368 0.145 1.512-2.232-0.288-1.188-5.58-0.324-1.04 0.43z" fill="#E8E800"/>
      <path d="m219.78 197.93h-0.18l4.212 3.133 1.368 0.18 1.512-2.305-0.288-1.188-5.58-0.287-1.04 0.47z" fill="#DBDB00"/>
      <path d="m171 237.17h-0.108l4.32 3.313 1.368 0.18 1.332-2.305-0.108-1.188-2.88-0.432-3.744 0.145-0.18 0.29z" fill="#E8E800"/>
      <path d="m171.9 236.45h-0.108l3.708 2.809 1.98 0.504 1.332-2.303-0.288-1.189-5.724-0.287-0.9 0.47z" fill="#DBDB00"/>
      <path d="m296.89 110.63h-0.182l4.213 3.168 1.367 0.144 1.514-2.232-0.324-1.188-5.58-0.324-1.01 0.43z" fill="#E8E800"/>
      <path d="m297.79 109.91h-0.18l4.213 3.132 1.367 0.18 1.332-2.412-0.324-1.08-5.508-0.288-0.9 0.47z" fill="#DBDB00"/>
      <path d="m336.31 201.24h-0.109l3.42 3.096 4.969 2.592h0.721l2.088-2.699 0.504-2.592-1.225-0.9-7.955-0.289-2.412 0.613v0.18z" fill="#E8E800"/>
      <path d="m337.82 199.84h-0.145l3.42 3.205 5.004 2.52h0.721l2.088-2.701 0.467-2.52-1.188-0.9-7.992-0.324-2.375 0.613v0.11z" fill="#DBDB00"/>
      <path d="m293.58 271.66h-0.18l3.492 3.203 4.787 2.377h0.9l2.232-2.881 0.18-2.375-2.268-0.9h-7.813l-1.33 0.58z" fill="#E8E800"/>
      <path d="m295.09 270.36h-0.18l3.492 3.098 4.787 2.412h0.9l2.232-2.809 0.18-2.412-2.305-0.9h-7.775l-1.33 0.61z" fill="#DBDB00"/>
      <path d="m374.9 308.56h-0.18l3.168 2.844 4.932 2.699h1.188l2.268-2.844 0.145-2.375-2.232-0.9h-7.992l-1.3 0.58z" fill="#E8E800"/>
      <path d="m376.38 307.19h-0.18l3.205 2.881 4.896 2.699h1.223l2.268-2.879 0.109-2.412-2.197-0.9h-7.992l-1.33 0.61z" fill="#DBDB00"/>
      <path d="m363.92 354.6h-0.145l3.133 2.988 5.688 2.881 2.412-2.412 0.611-2.557-1.332-1.332-7.99-0.287-2.377 0.576v0.14z" fill="#E8E800"/>
      <path d="m365.4 353.27h-0.109l3.133 2.988 5.688 2.844 2.412-2.412 0.576-2.52-1.295-1.367-7.992-0.324-2.412 0.611v0.18z" fill="#DBDB00"/>
      <path d="m405 324.47h-0.107l3.131 2.807 4.969 2.701h1.188l2.232-2.809 0.18-2.412-2.268-0.9h-7.92l-1.4 0.61z" fill="#E8E800"/>
      <path d="m406.51 323.1h-0.107l3.096 2.988 5.725 2.881 2.375-2.412 0.611-2.557-1.332-1.332-7.955-0.287-2.412 0.576v0.14z" fill="#DBDB00"/>
      <path d="m419.29 184.43h-0.18l3.168 2.988 5.725 2.844 2.375-2.412 0.613-2.52-1.369-1.368-7.92-0.324-2.412 0.612v0.18z" fill="#E8E800"/>
      <path d="m420.8 183.06h-0.182l3.168 2.988 5.689 2.88 2.412-2.412 0.611-2.556-1.404-1.332-7.92-0.288-2.375 0.576v0.14z" fill="#DBDB00"/>
      <path d="m249.01 180.22h-0.107l3.707 2.844 1.98 0.468 1.332-2.268-0.324-1.224-5.688-0.288-0.9 0.47z" fill="#E8E800"/>
      <path d="m249.91 179.46h-0.107l3.707 2.88 1.98 0.396 1.332-2.196-0.324-1.224-5.688-0.288-0.9 0.43z" fill="#DBDB00"/>
      <path d="m290.12 73.728h-0.143l3.744 2.88 1.979 0.432 1.3-2.232-0.289-1.188-5.688-0.324-0.9 0.432z" fill="#E8E800"/>
      <path d="m291.02 73.008h-0.145l3.744 2.808 1.98 0.504 1.297-2.304-0.289-1.188-5.688-0.288-0.9 0.468z" fill="#DBDB00"/>
      <path d="m263.3 49.428h-0.182l3.781 2.88 1.908 0.432 1.367-2.232-0.287-1.188-5.689-0.324-0.9 0.432z" fill="#E8E800"/>
      <path d="m264.2 48.708h-0.18l3.781 2.808 1.906 0.504 1.369-2.304-0.289-1.116-5.688-0.324-0.9 0.432z" fill="#DBDB00"/>
      <path d="m222.8 62.82l-0.072 0.108-0.072 0.108v0.324l0.072 0.108 0.072 0.108 0.036 0.144 0.072 0.108 0.108 0.108 0.072 0.144 0.108 0.108 0.144 0.108 0.18 0.144 0.108 0.036 0.18 0.072 0.18 0.072 0.108 0.036 0.18 0.072h0.18l0.18 0.072h0.324l0.108-0.072h0.18l0.108-0.072 0.144-0.036 0.108-0.072 0.108-0.072 0.144-0.108 0.036-0.072 0.072-0.108 0.108-0.18v-0.072l0.072-0.108v-0.288l-0.072-0.144-0.036-0.108-0.072-0.108-0.072-0.144-0.108-0.108-0.072-0.108-0.108-0.144-0.108-0.108-0.18-0.108-0.144-0.072-0.18-0.072-0.108-0.108-0.18-0.072-0.18-0.036-0.18-0.072h-0.612l-0.18 0.072h-0.108l-0.108 0.108-0.14 0.072-0.108 0.036-0.108 0.145-0.072 0.108-0.072 0.108-0.04 0.143z" fill="#E8E800"/>
      <path d="m222.91 62.208l-0.072 0.108-0.036 0.144v0.396l0.04 0.144 0.072 0.108 0.072 0.108 0.036 0.144 0.144 0.108 0.108 0.108 0.108 0.144 0.144 0.108 0.108 0.072 0.18 0.036 0.18 0.072 0.18 0.072 0.18 0.036h0.18l0.18 0.072h0.29l0.18-0.072h0.18l0.144-0.036 0.108-0.072 0.108-0.072 0.144-0.036 0.108-0.144 0.072-0.036 0.036-0.144 0.144-0.18v-0.468l-0.072-0.108-0.072-0.144-0.036-0.108-0.072-0.108-0.072-0.145-0.108-0.108-0.108-0.108-0.144-0.144-0.108-0.108-0.108-0.072-0.18-0.036-0.14-0.143-0.18-0.036-0.18-0.072-0.18-0.072h-0.576l-0.18 0.072h-0.144l-0.108 0.108-0.108 0.072-0.14 0.072-0.108 0.108-0.072 0.108-0.036 0.144-0.07 0.108z" fill="#DBDB00"/>
      <path d="m231.19 80.316l-0.072 0.144-0.036 0.108v0.288l0.04 0.144 0.072 0.108 0.072 0.108 0.036 0.144 0.144 0.108 0.036 0.108 0.144 0.144 0.108 0.108 0.18 0.108 0.108 0.072 0.18 0.072 0.18 0.036 0.145 0.144 0.18 0.036 0.182 0.072h0.756l0.143-0.072 0.109-0.036 0.11-0.072 0.145-0.072 0.107-0.036 0.072-0.144 0.035-0.108 0.145-0.108v-0.144l0.035-0.108v-0.288l-0.035-0.144-0.072-0.18-0.072-0.108-0.035-0.108-0.145-0.144-0.035-0.108-0.14-0.108-0.107-0.144-0.182-0.108-0.107-0.072-0.18-0.108-0.145-0.108h-0.18l-0.18-0.072h-0.756l-0.18 0.072-0.145 0.036-0.107 0.072-0.108 0.072-0.144 0.036-0.108 0.072-0.072 0.108-0.036 0.144-0.07 0.036z" fill="#E8E800"/>
      <path d="m231.3 79.74l-0.036 0.108-0.072 0.108v0.432l0.072 0.108 0.036 0.144 0.072 0.108 0.072 0.108 0.11 0.144 0.108 0.108 0.145 0.108 0.107 0.144 0.108 0.036 0.18 0.072 0.18 0.072 0.145 0.108 0.18 0.072 0.182 0.036h0.827l0.109-0.036 0.18-0.072 0.145-0.072 0.107-0.036 0.107-0.072 0.072-0.108 0.072-0.144 0.107-0.108v-0.54l-0.072-0.108-0.035-0.18-0.072-0.144-0.072-0.108-0.035-0.108-0.145-0.144-0.107-0.108-0.109-0.108-0.143-0.144-0.109-0.036-0.18-0.144-0.107-0.108h-0.18l-0.18-0.072h-0.18l-0.182-0.036h-0.325l-0.107 0.036h-0.18l-0.108 0.072-0.145 0.072-0.107 0.036-0.108 0.072-0.144 0.108-0.036 0.072-0.072 0.108-0.07 0.144z" fill="#DBDB00"/>
      <path d="m266.4 96.228l-0.037 0.18-0.072 0.108v0.324l0.072 0.108 0.037 0.18 0.072 0.108 0.07 0.144 0.109 0.108 0.072 0.108 0.107 0.144 0.107 0.108 0.18 0.108 0.145 0.072 0.18 0.108 0.18 0.072 0.109 0.072 0.18 0.036h0.792l0.182-0.036 0.107-0.072 0.107-0.072 0.145-0.036 0.107-0.072 0.107-0.072 0.072-0.108 0.072-0.108 0.107-0.144v-0.54l-0.07-0.108-0.037-0.18-0.072-0.108-0.072-0.144-0.035-0.108-0.145-0.108-0.107-0.144-0.107-0.108-0.145-0.108-0.107-0.072-0.18-0.108-0.109-0.144h-0.18l-0.18-0.036h-0.794l-0.18 0.036-0.107 0.072-0.145 0.072-0.107 0.036-0.107 0.072-0.145 0.072-0.037 0.108-0.07 0.108-0.07 0.072z" fill="#E8E800"/>
      <path d="m266.58 95.616l-0.037 0.18-0.07 0.144v0.396l0.07 0.18v0.144l0.109 0.108 0.072 0.108 0.035 0.144 0.145 0.108 0.107 0.108 0.107 0.144 0.145 0.036 0.18 0.144 0.18 0.036 0.109 0.072 0.18 0.072h0.829l0.18-0.072 0.145-0.072 0.18-0.036 0.107-0.072 0.072-0.072 0.107-0.036 0.072-0.144 0.037-0.108 0.07-0.108v-0.144l0.072-0.108v-0.432l-0.072-0.18v-0.108l-0.07-0.108-0.109-0.144-0.072-0.108-0.107-0.108-0.107-0.144-0.145-0.108-0.107-0.072-0.18-0.108-0.109-0.108h-0.18l-0.18-0.072h-0.865l-0.18 0.072-0.109 0.036-0.18 0.072-0.107 0.072-0.072 0.036-0.107 0.072-0.072 0.108-0.072 0.144v0.036z" fill="#DBDB00"/>
      <path d="m207.79 148.25l-0.072 0.108-0.036 0.144v0.396l0.036 0.144v0.108l0.144 0.108 0.036 0.144 0.072 0.108 0.108 0.108 0.144 0.144 0.108 0.108 0.108 0.072 0.18 0.036 0.18 0.072 0.144 0.108 0.18 0.072 0.18 0.072h0.828l0.108-0.072 0.18-0.072 0.144-0.036 0.036-0.072 0.144-0.072 0.036-0.108 0.072-0.108 0.072-0.144v-0.108l0.036-0.108v-0.432l-0.036-0.18v-0.108l-0.072-0.144-0.108-0.108-0.072-0.108-0.108-0.144-0.144-0.108-0.108-0.108-0.108-0.072-0.18-0.108-0.144-0.144h-0.18l-0.18-0.036h-0.18l-0.18-0.072h-0.36l-0.108 0.072h-0.18l-0.108 0.036-0.18 0.072-0.144 0.072-0.036 0.036-0.144 0.144-0.036 0.036-0.072 0.144v0.11z" fill="#E8E800"/>
      <path d="m207.79 147.64l-0.072 0.144-0.036 0.108v0.288l0.036 0.144 0.072 0.108 0.072 0.108 0.036 0.144 0.144 0.108 0.036 0.108 0.144 0.144 0.108 0.108 0.18 0.108 0.108 0.072 0.18 0.072 0.18 0.036 0.144 0.144 0.18 0.036 0.18 0.072h0.756l0.144-0.072 0.108-0.036 0.108-0.072 0.144-0.072 0.108-0.036 0.072-0.144 0.036-0.108 0.144-0.108v-0.144l0.036-0.108v-0.29l-0.036-0.18-0.072-0.144-0.072-0.18-0.036-0.108-0.144-0.108-0.036-0.144-0.144-0.108-0.108-0.108-0.18-0.144-0.108-0.036-0.18-0.072-0.144-0.108h-0.18l-0.18-0.072h-0.18l-0.18-0.072h-0.288l-0.108 0.072h-0.18l-0.144 0.072-0.108 0.036-0.108 0.072-0.144 0.072-0.108 0.108-0.072 0.072-0.036 0.108-0.07 0.11z" fill="#DBDB00"/>
      <path d="m183.31 216.18l-0.072 0.109v0.287l0.072 0.145v0.107l0.072 0.107 0.036 0.145 0.072 0.107 0.072 0.109 0.108 0.143 0.108 0.109 0.144 0.107 0.108 0.145 0.108 0.035 0.18 0.072 0.18 0.072 0.144 0.107 0.18 0.072 0.18 0.035h0.576l0.18-0.035h0.144l0.108-0.145 0.108-0.035 0.144-0.072 0.108-0.107 0.072-0.145 0.036-0.107 0.144-0.18v-0.072l0.036-0.109v-0.435l-0.036-0.107v-0.107l-0.072-0.145-0.108-0.107-0.072-0.109-0.108-0.143-0.144-0.109-0.108-0.107-0.108-0.072-0.18-0.072-0.144-0.107h-0.18l-0.18-0.072h-0.18l-0.18-0.035h-0.36l-0.18 0.035h-0.108l-0.18 0.072-0.108 0.072-0.144 0.035-0.18 0.072-0.036 0.107-0.144 0.072-0.036 0.109-0.07 0.14z" fill="#E8E800"/>
      <path d="m183.49 215.57l-0.072 0.107-0.036 0.145v0.287l0.036 0.109 0.072 0.143 0.072 0.109 0.036 0.107 0.144 0.145 0.036 0.107 0.144 0.107 0.108 0.145 0.18 0.107 0.108 0.072 0.18 0.037 0.18 0.072 0.144 0.07 0.18 0.037 0.18 0.072h0.576l0.18-0.072h0.144l0.108-0.037 0.108-0.07 0.144-0.109 0.108-0.072 0.072-0.107 0.036-0.145 0.144-0.18v-0.035l0.036-0.145v-0.287l-0.036-0.109-0.072-0.143-0.072-0.109-0.036-0.107-0.144-0.145-0.036-0.107-0.144-0.107-0.108-0.145-0.18-0.107-0.108-0.072-0.18-0.037-0.144-0.143-0.18-0.037-0.18-0.072h-0.18l-0.18-0.072h-0.288l-0.108 0.072h-0.18l-0.144 0.072-0.108 0.037-0.108 0.07-0.144 0.109-0.108 0.143-0.072 0.037-0.036 0.145-0.07 0.11z" fill="#DBDB00"/>
      <path d="m198.5 276.48l-0.072 0.18-0.072 0.107v0.289l0.072 0.143 0.072 0.182 0.036 0.107 0.072 0.107 0.108 0.145 0.072 0.107 0.108 0.109 0.144 0.143 0.18 0.109 0.108 0.07 0.18 0.109 0.18 0.072 0.108 0.035 0.18 0.072h0.792l0.18-0.072 0.108-0.035 0.144-0.072 0.108-0.072 0.108-0.037 0.144-0.07 0.036-0.109 0.072-0.143 0.108-0.109v-0.107l0.072-0.145v-0.287l-0.072-0.109-0.036-0.143-0.072-0.109-0.072-0.18-0.108-0.072-0.072-0.107-0.108-0.107-0.108-0.145-0.18-0.035-0.144-0.072-0.18-0.072-0.108-0.107-0.18-0.072-0.18-0.037-0.18-0.072h-0.792l-0.108 0.072-0.108 0.037-0.144 0.072-0.108 0.072-0.108 0.035-0.072 0.145-0.072 0.107-0.04 0.07z" fill="#E8E800"/>
      <path d="m198.61 275.87l-0.072 0.18-0.036 0.107v0.432l0.036 0.18 0.072 0.109 0.072 0.143 0.036 0.109 0.144 0.107 0.108 0.145 0.108 0.107 0.144 0.107 0.108 0.072 0.18 0.107 0.18 0.072 0.108 0.072 0.18 0.037h0.864l0.18-0.037 0.108-0.072 0.108-0.072 0.144-0.035 0.108-0.072 0.072-0.072 0.108-0.107 0.072-0.107 0.036-0.145v-0.107l0.072-0.109v-0.432l-0.072-0.18-0.036-0.107-0.072-0.145-0.072-0.107-0.108-0.109-0.108-0.143-0.144-0.109-0.108-0.107-0.108-0.072-0.18-0.107-0.144-0.145h-0.18l-0.18-0.035h-0.828l-0.108 0.035-0.18 0.072-0.144 0.072-0.108 0.035-0.108 0.072-0.072 0.072-0.108 0.107-0.072 0.109v0.07z" fill="#DBDB00"/>
      <path d="m320.11 150.05l-0.107 0.252v0.72l0.035 0.216 0.072 0.252 0.109 0.252 0.143 0.216 0.18 0.18 0.182 0.252 0.18 0.18 0.215 0.18 0.252 0.18 0.252 0.18 0.289 0.108 0.287 0.144 0.252 0.108 0.289 0.108 0.324 0.072h1.08l0.287-0.072 0.252-0.036 0.217-0.072 0.18-0.108 0.252-0.144 0.18-0.18 0.18-0.18 0.109-0.18 0.18-0.216 0.072-0.18v-0.72l-0.072-0.252-0.037-0.252-0.143-0.216-0.109-0.252-0.18-0.18-0.18-0.252-0.18-0.18-0.252-0.216-0.217-0.144-0.252-0.18-0.287-0.108-0.252-0.18-0.361-0.108-0.287-0.072-0.324-0.072-0.287-0.036h-0.828l-0.252 0.036-0.289 0.072-0.18 0.108-0.252 0.144-0.18 0.108-0.18 0.18-0.182 0.18-0.107 0.18-0.07 0.18z" fill="#E8E800"/>
      <path d="m320.29 149.04l-0.107 0.216v0.252l-0.072 0.252 0.072 0.216v0.252l0.107 0.252 0.072 0.216 0.18 0.252 0.109 0.18 0.18 0.252 0.18 0.18 0.252 0.18 0.217 0.18 0.324 0.18 0.215 0.108 0.359 0.108 0.254 0.144 0.287 0.036 0.324 0.072 0.287 0.072h0.289l0.252-0.072h0.287l0.252-0.072 0.252-0.108 0.217-0.072 0.252-0.108 0.18-0.18 0.18-0.18 0.18-0.18 0.109-0.18 0.143-0.252 0.037-0.18v-0.18l0.072-0.216-0.072-0.18v-0.252l-0.107-0.252-0.072-0.18-0.109-0.216-0.18-0.252-0.18-0.18-0.18-0.18-0.252-0.252-0.217-0.108-0.324-0.18-0.215-0.108-0.32-0.18-0.289-0.144-0.287-0.036-0.324-0.144h-0.287l-0.289-0.036h-0.252l-0.287 0.036-0.252 0.072-0.252 0.072-0.217 0.108-0.252 0.108-0.18 0.144-0.18 0.18-0.18 0.18-0.109 0.18-0.07 0.18z" fill="#DBDB00"/>
      <path d="m317.59 209.63l-0.107 0.252v0.215l-0.072 0.252 0.072 0.252v0.217l0.107 0.252 0.072 0.252 0.18 0.217 0.107 0.18 0.182 0.252 0.18 0.18 0.252 0.18 0.215 0.18 0.324 0.18 0.217 0.109 0.359 0.143 0.252 0.109 0.289 0.072 0.322 0.035h1.117l0.252-0.035 0.252-0.072 0.215-0.109 0.254-0.143 0.18-0.109 0.18-0.107 0.18-0.18 0.107-0.145 0.145-0.215 0.035-0.182v-0.252l0.072-0.252-0.072-0.215v-0.252l-0.107-0.252-0.072-0.217-0.107-0.252-0.18-0.18-0.18-0.252-0.18-0.18-0.254-0.217-0.215-0.145-0.324-0.18-0.217-0.107-0.322-0.18-0.289-0.107-0.287-0.072-0.324-0.109h-0.289l-0.287-0.07h-0.252l-0.289 0.07-0.252 0.037-0.252 0.072-0.215 0.107-0.252 0.145-0.18 0.107-0.182 0.18-0.18 0.18-0.107 0.18-0.07 0.18z" fill="#E8E800"/>
      <path d="m317.7 208.55l-0.107 0.252v0.719l0.072 0.217 0.035 0.252 0.145 0.252 0.107 0.217 0.182 0.18 0.18 0.252 0.18 0.18 0.252 0.18 0.215 0.18 0.252 0.18 0.289 0.109 0.324 0.143 0.287 0.109 0.289 0.072 0.324 0.035 0.287 0.072h0.611l0.217-0.072 0.324-0.035 0.215-0.072 0.182-0.109 0.252-0.143 0.18-0.109 0.18-0.18 0.18-0.18 0.107-0.18 0.145-0.252 0.037-0.18v-0.649l-0.037-0.252-0.072-0.217-0.107-0.18-0.145-0.252-0.18-0.252-0.18-0.215-0.18-0.182-0.217-0.18-0.252-0.252-0.252-0.107-0.287-0.18-0.252-0.18-0.289-0.072-0.287-0.072-0.324-0.037-0.217-0.07h-0.611l-0.252 0.07-0.289 0.037-0.252 0.072-0.215 0.107-0.18 0.145-0.252 0.107-0.18 0.18-0.182 0.18-0.107 0.182-0.14 0.18z" fill="#DBDB00"/>
      <path d="m268.99 271.66l-0.107 0.252v0.252l-0.072 0.217 0.072 0.252v0.252l0.107 0.215 0.072 0.252 0.18 0.252 0.107 0.18 0.18 0.217 0.18 0.18 0.252 0.18 0.217 0.182 0.324 0.18 0.217 0.143 0.359 0.109 0.252 0.107 0.287 0.072 0.324 0.072 0.217 0.035h0.539l0.324-0.035 0.217-0.072 0.252-0.072 0.252-0.107 0.215-0.109 0.182-0.143 0.18-0.18 0.18-0.182 0.145-0.18 0.18-0.215 0.035-0.182v-0.252l0.072-0.252-0.072-0.215v-0.252l-0.107-0.252-0.072-0.18-0.107-0.217-0.18-0.252-0.182-0.18-0.18-0.18-0.252-0.252-0.215-0.182-0.324-0.18-0.217-0.107-0.324-0.18-0.359-0.072-0.287-0.035-0.289-0.072-0.324-0.072h-0.535l-0.289 0.072-0.252 0.072-0.215 0.035-0.252 0.145-0.182 0.107-0.252 0.107-0.107 0.18-0.18 0.182-0.107 0.18-0.07 0.18z" fill="#E8E800"/>
      <path d="m269.1 270.65l-0.107 0.252v0.721l0.072 0.215 0.035 0.18 0.145 0.252 0.107 0.252 0.18 0.182 0.18 0.215 0.182 0.18 0.252 0.18 0.215 0.182 0.252 0.18 0.289 0.18 0.324 0.145 0.215 0.107 0.324 0.072 0.289 0.035 0.287 0.072h0.324l0.215-0.072h0.324l0.217-0.035 0.324-0.145 0.215-0.035 0.182-0.145 0.252-0.18 0.18-0.18 0.18-0.182 0.107-0.18 0.145-0.215 0.035-0.18v-0.721l-0.035-0.252-0.072-0.252-0.107-0.217-0.145-0.252-0.18-0.18-0.18-0.252-0.18-0.18-0.217-0.217-0.252-0.143-0.252-0.182-0.287-0.107-0.254-0.18-0.287-0.072-0.287-0.035-0.324-0.072-0.289-0.072h-0.287l-0.252 0.072h-0.289l-0.252 0.072-0.287 0.107-0.252 0.072-0.18 0.107-0.252 0.18-0.182 0.18-0.18 0.182-0.107 0.18-0.07 0.18z" fill="#DBDB00"/>
      <path d="m309.2 332.86l-0.143 0.252v0.252l-0.037 0.217 0.037 0.252v0.252l0.143 0.217 0.037 0.252 0.18 0.252 0.145 0.18 0.18 0.215 0.18 0.182 0.217 0.18 0.252 0.18 0.287 0.18 0.252 0.145 0.359 0.107 0.289 0.107 0.324 0.072 0.287 0.072 0.289 0.037h0.252l0.287-0.037h0.324l0.217-0.072 0.252-0.107 0.252-0.072 0.18-0.107 0.215-0.18 0.145-0.18 0.18-0.182 0.109-0.18 0.107-0.252 0.072-0.18v-0.18l0.072-0.252-0.072-0.18v-0.217l-0.109-0.252-0.07-0.252-0.109-0.217-0.18-0.18-0.18-0.252-0.18-0.18-0.252-0.252-0.252-0.18-0.289-0.18-0.252-0.18-0.287-0.182-0.289-0.035-0.322-0.072-0.289-0.072-0.252-0.035h-0.287l-0.252 0.035h-0.289l-0.252 0.072-0.217 0.107-0.252 0.072-0.252 0.109-0.18 0.18-0.18 0.18-0.18 0.18-0.107 0.18-0.11 0.18z" fill="#E8E800"/>
      <path d="m309.49 331.78l-0.107 0.252-0.072 0.252-0.072 0.217v0.252l0.072 0.252 0.072 0.217 0.107 0.252 0.107 0.252 0.145 0.18 0.18 0.217 0.18 0.18 0.217 0.18 0.252 0.18 0.252 0.18 0.287 0.145 0.289 0.107 0.324 0.107 0.287 0.072 0.289 0.072 0.322 0.037h0.576l0.252-0.037 0.289-0.072 0.252-0.072 0.18-0.107 0.252-0.107 0.18-0.145 0.18-0.18 0.18-0.18 0.109-0.18 0.107-0.217 0.072-0.18v-0.721l-0.072-0.252-0.035-0.252-0.145-0.18-0.107-0.217-0.182-0.252-0.18-0.18-0.18-0.18-0.252-0.252-0.215-0.18-0.252-0.18-0.289-0.109-0.252-0.18-0.287-0.072-0.324-0.035-0.289-0.072-0.252-0.072h-0.576l-0.252 0.072-0.252 0.072-0.215 0.035-0.252 0.145-0.252 0.107-0.182 0.109-0.18 0.18-0.107 0.18-0.107 0.18-0.07 0.18z" fill="#DBDB00"/>
      <path d="m377.1 239.76l-0.107 0.217v0.719l0.072 0.252 0.035 0.254 0.145 0.215 0.107 0.252 0.18 0.18 0.18 0.252 0.182 0.182 0.252 0.18 0.215 0.18 0.252 0.18 0.289 0.107 0.324 0.109 0.215 0.18 0.324 0.072 0.289 0.07 0.287 0.037h0.863l0.217-0.037 0.324-0.07 0.215-0.109 0.182-0.143 0.252-0.109 0.18-0.18 0.18-0.18 0.107-0.18 0.145-0.252 0.035-0.18v-0.721l-0.035-0.217-0.072-0.252-0.107-0.252-0.145-0.215-0.18-0.18-0.18-0.252-0.18-0.182-0.217-0.252-0.252-0.107-0.252-0.18-0.287-0.107-0.254-0.182-0.287-0.07-0.287-0.072-0.324-0.037-0.289-0.072h-0.539l-0.289 0.072h-0.252l-0.287 0.109-0.252 0.07-0.18 0.109-0.252 0.107-0.182 0.18-0.18 0.145-0.107 0.18-0.07 0.18z" fill="#E8E800"/>
      <path d="m377.28 238.68l-0.107 0.217v0.252l-0.07 0.25 0.072 0.217v0.252l0.107 0.252 0.072 0.215 0.18 0.252 0.109 0.18 0.18 0.252 0.18 0.182 0.252 0.18 0.252 0.18 0.287 0.18 0.252 0.107 0.361 0.109 0.287 0.18 0.289 0.072 0.324 0.107h0.287l0.252 0.072h0.289l0.287-0.072 0.252-0.037 0.252-0.07 0.217-0.109 0.18-0.143 0.252-0.109 0.107-0.18 0.18-0.18 0.145-0.18 0.107-0.252 0.072-0.18v-0.217l0.037-0.252-0.037-0.252v-0.217l-0.145-0.252-0.035-0.252-0.145-0.215-0.18-0.18-0.18-0.252-0.18-0.182-0.217-0.252-0.252-0.107-0.287-0.18-0.252-0.107-0.289-0.182-0.324-0.143-0.287-0.037-0.289-0.072-0.252-0.07h-0.828l-0.252 0.07-0.252 0.072-0.215 0.109-0.252 0.107-0.18 0.145-0.182 0.18-0.18 0.18-0.107 0.18-0.14 0.18z" fill="#DBDB00"/>
      <path d="m403.2 143.46l-0.107 0.216-0.072 0.252-0.035 0.18 0.035 0.252v0.216l0.072 0.252 0.107 0.18 0.145 0.252 0.107 0.216 0.182 0.18 0.18 0.18 0.252 0.252 0.215 0.108 0.324 0.18 0.217 0.144 0.359 0.108 0.324 0.18 0.287 0.072 0.289 0.036 0.324 0.072h0.828l0.252-0.072 0.215-0.036 0.252-0.144 0.182-0.108 0.252-0.108 0.107-0.18 0.18-0.18 0.107-0.18 0.145-0.252 0.035-0.18v-0.252l0.072-0.216-0.072-0.252v-0.252l-0.107-0.216-0.072-0.252-0.107-0.252-0.18-0.18-0.18-0.216-0.18-0.18-0.254-0.252-0.215-0.108-0.324-0.18-0.217-0.144-0.322-0.18-0.289-0.036-0.287-0.072-0.324-0.072-0.217-0.036h-0.539l-0.324 0.036-0.217 0.072-0.252 0.072-0.252 0.108-0.18 0.108-0.18 0.144-0.18 0.18-0.182 0.18-0.107 0.18-0.07 0.18z" fill="#E8E800"/>
      <path d="m403.38 142.24l-0.107 0.252v0.252l-0.072 0.216 0.072 0.252v0.252l0.107 0.216 0.072 0.252 0.109 0.252 0.18 0.18 0.145 0.216 0.18 0.18 0.215 0.18 0.252 0.18 0.252 0.18 0.22 0.14 0.324 0.108 0.287 0.18 0.289 0.072 0.324 0.108h0.287l0.289 0.072h0.322l0.217-0.072 0.324-0.072 0.215-0.036 0.182-0.144 0.252-0.108 0.18-0.108 0.18-0.18 0.18-0.18 0.107-0.18 0.145-0.252 0.037-0.18v-0.724l-0.037-0.252-0.072-0.216-0.107-0.252-0.145-0.252-0.107-0.18-0.18-0.216-0.18-0.18-0.252-0.252-0.217-0.108-0.252-0.18-0.252-0.144-0.217-0.18-0.359-0.036-0.324-0.072-0.287-0.072-0.289-0.036h-0.539l-0.32 0.04-0.217 0.072-0.252 0.072-0.252 0.108-0.18 0.072-0.215 0.18-0.145 0.108-0.18 0.18-0.109 0.108-0.07 0.18z" fill="#DBDB00"/>
      <path d="m375.48 98.208l-0.109 0.252v0.216l-0.07 0.252 0.07 0.252v0.216l0.109 0.18 0.072 0.252 0.18 0.252 0.107 0.18 0.18 0.216 0.18 0.18 0.252 0.18 0.252 0.18 0.289 0.18 0.252 0.18 0.359 0.144 0.217 0.108 0.324 0.072 0.287 0.036 0.252 0.072h0.289l0.252-0.072h0.287l0.252-0.036 0.217-0.144 0.252-0.036 0.252-0.144 0.18-0.18 0.18-0.18 0.18-0.18 0.109-0.18 0.18-0.216 0.072-0.18v-0.252l0.035-0.252-0.035-0.216v-0.252l-0.145-0.252-0.037-0.216-0.143-0.252-0.182-0.18-0.18-0.252-0.18-0.18-0.215-0.216-0.252-0.144-0.289-0.18-0.252-0.108-0.287-0.18-0.361-0.072-0.324-0.036-0.287-0.072-0.289-0.072h-0.252l-0.287 0.072h-0.32l-0.215 0.072-0.252 0.108-0.254 0.072-0.18 0.108-0.215 0.18-0.145 0.18-0.18 0.18-0.107 0.18-0.07 0.178z" fill="#E8E800"/>
      <path d="m375.62 97.02l-0.143 0.216v0.72l0.072 0.252 0.07 0.252 0.109 0.216 0.107 0.252 0.18 0.18 0.18 0.252 0.18 0.18 0.254 0.18 0.252 0.18 0.215 0.18 0.324 0.108 0.287 0.108 0.252 0.18 0.289 0.072 0.287 0.072 0.324 0.036h0.828l0.252-0.036 0.289-0.072 0.252-0.108 0.18-0.144 0.215-0.108 0.182-0.18 0.18-0.18 0.145-0.18 0.107-0.252 0.072-0.18v-0.722l-0.072-0.216-0.072-0.252-0.107-0.252-0.109-0.216-0.18-0.18-0.18-0.252-0.18-0.18-0.252-0.252-0.252-0.108-0.217-0.18-0.324-0.108-0.215-0.18-0.324-0.072-0.289-0.072-0.287-0.036-0.324-0.072h-0.539l-0.289 0.072h-0.25l-0.287 0.108-0.252 0.072-0.182 0.108-0.215 0.108-0.18 0.18-0.18 0.144-0.145 0.18-0.04 0.18z" fill="#DBDB00"/>
      <path d="m426.6 238.07l-0.107 0.252v0.721l0.072 0.215 0.035 0.252 0.145 0.252 0.107 0.217 0.18 0.18 0.18 0.252 0.182 0.18 0.252 0.18 0.215 0.182 0.252 0.18 0.289 0.107 0.324 0.145 0.215 0.18 0.324 0.035 0.289 0.145h0.252l0.287 0.035h0.287l0.254-0.035 0.287-0.072 0.252-0.072 0.252-0.107 0.18-0.107 0.217-0.145 0.18-0.18 0.18-0.18 0.145-0.182 0.18-0.215 0.035-0.18v-0.721l-0.035-0.252-0.072-0.252-0.107-0.217-0.145-0.252-0.18-0.18-0.18-0.252-0.18-0.18-0.217-0.217-0.252-0.143-0.252-0.18-0.287-0.109-0.254-0.18-0.359-0.107-0.287-0.072-0.289-0.072-0.324-0.035h-0.828l-0.252 0.035-0.287 0.072-0.18 0.107-0.252 0.145-0.18 0.107-0.182 0.18-0.18 0.182-0.107 0.18-0.07 0.18z" fill="#E8E800"/>
      <path d="m426.78 237.06l-0.107 0.215v0.252l-0.072 0.252 0.072 0.217v0.252l0.107 0.252 0.072 0.217 0.18 0.252 0.109 0.18 0.18 0.252 0.18 0.18 0.252 0.18 0.252 0.18 0.287 0.182 0.252 0.107 0.361 0.107 0.215 0.145 0.324 0.035 0.289 0.072 0.287 0.072h0.541l0.324-0.072 0.215-0.072 0.252-0.035 0.252-0.145 0.217-0.035 0.18-0.18 0.18-0.145 0.18-0.18 0.145-0.109 0.107-0.252 0.072-0.18v-0.215l0.037-0.252-0.037-0.252v-0.217l-0.145-0.252-0.035-0.252-0.145-0.217-0.18-0.18-0.18-0.252-0.18-0.18-0.217-0.252-0.252-0.107-0.287-0.182-0.252-0.107-0.289-0.18-0.324-0.145-0.287-0.035-0.289-0.145h-0.322l-0.289-0.035h-0.252l-0.287 0.035-0.252 0.072-0.217 0.072-0.252 0.107-0.252 0.107-0.18 0.145-0.18 0.18-0.182 0.18-0.107 0.182-0.07 0.18z" fill="#DBDB00"/>
    </g>
  </g>
  <metadata>
    <rdf:RDF>
      <cc:Work>
        <dc:format>image/svg+xml</dc:format>
        <dc:type rdf:resource="http://purl.org/dc/dcmitype/StillImage"/>
        <cc:license rdf:resource="http://creativecommons.org/licenses/publicdomain/"/>
        <dc:publisher>
          <cc:Agent rdf:about="http://openclipart.org/">
            <dc:title>Openclipart</dc:title>
          </cc:Agent>
        </dc:publisher>
        <dc:title>Lemon Variations</dc:title>
        <dc:date>2007-11-16T03:07:15</dc:date>
        <dc:description>clip art, clipart, food, food, fruit, fruit, image, lemon, lemon, media, png, public domain, svg, </dc:description>
        <dc:source>http://openclipart.org/detail/8603/lemon-variations-by-gerald_g-8603</dc:source>
        <dc:creator>
          <cc:Agent>
            <dc:title>Gerald_G</dc:title>
          </cc:Agent>
        </dc:creator>
        <dc:subject>
          <rdf:Bag>
            <rdf:li>clip art</rdf:li>
            <rdf:li>clipart</rdf:li>
            <rdf:li>food</rdf:li>
            <rdf:li>fruit</rdf:li>
            <rdf:li>image</rdf:li>
            <rdf:li>lemon</rdf:li>
            <rdf:li>media</rdf:li>
            <rdf:li>png</rdf:li>
            <rdf:li>public domain</rdf:li>
            <rdf:li>svg</rdf:li>
          </rdf:Bag>
        </dc:subject>
      </cc:Work>
      <cc:License rdf:about="http://creativecommons.org/licenses/publicdomain/">
        <cc:permits rdf:resource="http://creativecommons.org/ns#Reproduction"/>
        <cc:permits rdf:resource="http://creativecommons.org/ns#Distribution"/>
        <cc:permits rdf:resource="http://creativecommons.org/ns#DerivativeWorks"/>
      </cc:License>
    </rdf:RDF>
  </metadata>
</svg>
